<?xml version="1.0" standalone="no"?>
<!DOCTYPE svg PUBLIC "-//W3C//DTD SVG 1.1//EN" "http://www.w3.org/Graphics/SVG/1.1/DTD/svg11.dtd" >
<svg xmlns="http://www.w3.org/2000/svg">
<metadata>
This is a custom SVG webfont generated by Font Squirrel.
Copyright   : Copyright c 2011 Sorkin Type Co wwwsorkintypecomwith Reserved Font Name Spinnaker
Designer    : Elena Albertoni
Foundry     : Elena Albertoni
Foundry URL : httpwwwsorkintypecom
</metadata>
<defs>
<font id="SpinnakerRegular" horiz-adv-x="1290" >
<font-face units-per-em="2048" ascent="1638" descent="-410" />
<missing-glyph horiz-adv-x="584" />
<glyph unicode=" "  horiz-adv-x="584" />
<glyph unicode="&#x09;" horiz-adv-x="584" />
<glyph unicode="&#xa0;" horiz-adv-x="584" />
<glyph unicode="!" horiz-adv-x="602" d="M177 110q0 57 34 90.5t91 33.5q55 0 89 -33.5t34 -90.5q0 -55 -34 -89t-89 -34q-57 0 -91 34t-34 89zM199 1415h205l-30 -1005h-145z" />
<glyph unicode="&#x22;" horiz-adv-x="881" d="M165 1417h194l-30 -477h-134zM522 1417h194l-30 -477h-134z" />
<glyph unicode="#" horiz-adv-x="1589" d="M171 406v154h246l65 346h-311v154h339l70 375l153 -39l-63 -336h368l69 375l153 -38l-62 -337h220v-154h-248l-64 -346h312v-154h-340l-78 -425l-153 39l71 386h-369l-79 -425l-153 38l72 387h-218zM577 560h369l64 346h-368z" />
<glyph unicode="$" horiz-adv-x="1288" d="M116 246l95 160q81 -61 175 -100t179 -52v405q-78 15 -153 36t-134.5 56t-95.5 89.5t-36 136.5q0 79 35.5 141.5t94 107t134 71.5t155.5 35v139h153v-139q100 -10 195 -42t176 -84l-69 -162q-70 42 -149.5 71.5t-152.5 43.5v-357q81 -16 160 -37t142 -57t102 -92.5 t39 -143.5t-37 -154t-98.5 -114.5t-141.5 -76.5t-166 -40v-183h-153v178q-60 4 -122 17.5t-120.5 35t-111 49.5t-95.5 62zM344 991q0 -35 17 -60t46.5 -43.5t70 -32t87.5 -23.5v333q-43 -5 -83 -16.5t-70.5 -32.5t-49 -51.5t-18.5 -73.5zM718 254q48 6 92.5 21t78 39.5 t54 60t20.5 83.5q0 38 -19 65t-52 46.5t-78 33.5t-96 25v-374z" />
<glyph unicode="%" horiz-adv-x="1468" d="M69 1143q0 63 23.5 116.5t64 93t95.5 61.5t118 22t117.5 -21.5t95 -60t63.5 -91.5t23 -116t-23.5 -116.5t-64 -92t-95.5 -60.5t-118 -22t-117.5 21t-95 59.5t-63.5 91t-23 115.5zM111 83l1135 1356l121 -100l-1135 -1356zM206 1147q0 -38 11.5 -69t33 -53.5t51.5 -35 t68 -12.5q75 0 118.5 45.5t43.5 120.5q0 37 -11.5 69t-33 54.5t-52 35.5t-67.5 13q-75 0 -118.5 -46.5t-43.5 -121.5zM799 267q0 63 23.5 116.5t64 93t95.5 61.5t118 22t117.5 -21.5t95 -60t63.5 -91.5t23 -116t-23.5 -116.5t-64 -92t-95.5 -60.5t-118 -22t-117.5 21 t-95 59.5t-63.5 91t-23 115.5zM936 271q0 -38 11.5 -69t33 -53.5t51.5 -35t68 -12.5q75 0 118.5 45.5t43.5 120.5q0 37 -11.5 69t-33 54.5t-52 35.5t-67.5 13q-75 0 -118.5 -46.5t-43.5 -121.5z" />
<glyph unicode="&#x26;" horiz-adv-x="1535" d="M137 387q0 137 71 239.5t201 181.5q-42 62 -65 119t-23 110q0 94 31 168t86.5 125.5t133 78.5t171.5 27q99 0 196.5 -32.5t185.5 -103.5l-93 -148q-32 28 -69.5 50t-77.5 37t-80.5 23t-79.5 8q-98 0 -153 -52.5t-55 -150.5q0 -37 22 -82.5t61 -97t92 -107.5t115 -114 t131 -116.5t139 -115.5q40 85 59.5 181.5t19.5 196.5l187 2q0 -134 -32 -259.5t-94 -231.5q78 -60 149.5 -113.5t129.5 -97.5l-123 -141q-62 44 -131.5 93t-142.5 104q-87 -88 -200.5 -137.5t-253.5 -49.5q-102 0 -194 25t-162 76t-111 127t-41 178zM333 417q0 -63 28 -113 t74 -85t105.5 -53.5t122.5 -18.5q94 0 169 33t133 90q-125 98 -242.5 200.5t-208.5 205.5q-47 -26 -81.5 -53t-56.5 -58t-32.5 -67t-10.5 -81z" />
<glyph unicode="'" horiz-adv-x="524" d="M165 1416h194l-30 -477h-134z" />
<glyph unicode="(" horiz-adv-x="800" d="M137 633q0 140 26 271.5t79 252.5t134.5 229.5t192.5 203.5l99 -105q-89 -93 -154.5 -187.5t-108 -195t-63.5 -209.5t-21 -230q0 -145 27 -269t75 -230.5t113.5 -198t142.5 -172.5l-123 -100q-98 86 -175.5 186t-131.5 216.5t-83 250.5t-29 287z" />
<glyph unicode=")" horiz-adv-x="800" d="M123 1490l123 100q98 -86 175.5 -186t131.5 -216.5t83 -250.5t29 -287q0 -140 -26 -272t-79 -252.5t-134.5 -229.5t-192.5 -203l-99 105q89 93 154.5 187.5t108 195t63.5 209.5t21 230q0 145 -27 269t-75 230.5t-113.5 198t-142.5 172.5z" />
<glyph unicode="*" horiz-adv-x="1107" d="M187 1199l219 146l-219 146l57 98l236 -118l16 264h114l16 -263l237 118l57 -99l-221 -146l221 -146l-57 -99l-237 118l-16 -264h-114l-16 264l-236 -117z" />
<glyph unicode="+" horiz-adv-x="1336" d="M207 446v168h368v386h185v-386h369v-168h-369v-386h-185v386h-368z" />
<glyph unicode="," horiz-adv-x="527" d="M112 -228q13 18 29.5 50t31.5 69t25.5 74.5t12.5 66.5q-17 11 -34.5 34.5t-17.5 55.5q0 26 10 46.5t27 35t39.5 22.5t47.5 8q27 0 50 -10t39.5 -27t25.5 -40t9 -49q0 -33 -10.5 -70.5t-27.5 -75.5t-38.5 -75t-44.5 -68.5t-44.5 -57t-38.5 -40.5z" />
<glyph unicode="-" horiz-adv-x="1136" d="M207 515v154h722v-154h-722z" />
<glyph unicode="." horiz-adv-x="527" d="M158 110q0 57 34 90.5t91 33.5q55 0 89 -33.5t34 -90.5q0 -55 -34 -89t-89 -34q-57 0 -91 34t-34 89z" />
<glyph unicode="/" horiz-adv-x="997" d="M73 -467l676 2028h175l-676 -2028h-175z" />
<glyph unicode="0" horiz-adv-x="1662" d="M137 693q0 163 48.5 300t139.5 235t221 153t294 55q157 0 283.5 -52.5t215.5 -147t137.5 -225.5t48.5 -288q0 -164 -48.5 -300.5t-139.5 -234.5t-221.5 -153t-293.5 -55q-157 0 -283.5 52.5t-216 147t-137.5 225.5t-48 288zM333 723q0 -122 33.5 -227t98.5 -183 t159 -122.5t216 -44.5q118 0 209 41.5t153 114.5t94.5 173t32.5 218q0 121 -33.5 226.5t-98.5 183.5t-159.5 122.5t-215.5 44.5q-118 0 -209 -41.5t-153.5 -114.5t-94.5 -173t-32 -218z" />
<glyph unicode="1" horiz-adv-x="853" d="M55 1186l429 230h185v-1416h-185v1237l-375 -212z" />
<glyph unicode="2" horiz-adv-x="1249" d="M148 0v168l375 324q78 68 145 135t116 131.5t77 126t28 117.5q0 139 -74.5 202.5t-229.5 63.5q-45 0 -99.5 -10.5t-106.5 -26t-96.5 -33t-69.5 -30.5l-51 159q37 19 92.5 38.5t118 35.5t126 25.5t115.5 9.5q106 0 192.5 -29t148.5 -83t96 -132.5t34 -177.5 q0 -74 -30.5 -151t-82.5 -153t-121 -148t-145 -136l-298 -251l714 1v-176h-974z" />
<glyph unicode="3" horiz-adv-x="1270" d="M112 89l53 166q40 -23 92 -42.5t109.5 -34t118 -22.5t119.5 -8q61 0 120.5 16t105.5 47t74.5 77.5t28.5 108.5q0 77 -48 128.5t-129.5 80t-190.5 35t-230 -7.5v181q41 -2 79 -3q32 -2 65 -2.5t52 -0.5q69 0 134 13t115 42t80.5 76.5t30.5 116.5q0 56 -25 96.5t-66.5 66 t-95 37.5t-109.5 12q-45 0 -97 -7.5t-102 -20t-95 -29t-78 -33.5l-51 159q44 22 100.5 40t117 31t121.5 20.5t113 7.5q91 0 174.5 -23.5t147.5 -70t102.5 -115t38.5 -159.5q0 -50 -15 -98t-44 -90.5t-72.5 -76.5t-101.5 -54l-1 -9q73 -19 126 -51.5t87.5 -76t50.5 -96 t16 -110.5q0 -102 -49 -181.5t-128 -133.5t-179 -82.5t-202 -28.5q-67 0 -131.5 7t-124 21t-112.5 34.5t-95 46.5z" />
<glyph unicode="4" horiz-adv-x="1398" d="M77 506l767 910h185v-908h280v-168h-280v-340h-185v340h-713zM282 508h562v683z" />
<glyph unicode="5" horiz-adv-x="1271" d="M113 89l53 166q81 -46 183 -76.5t220 -30.5q74 0 140.5 17.5t116.5 52t79 87t29 122.5q0 82 -52 138t-148.5 84.5t-234 29t-308.5 -27.5v765h855v-168h-670v-413q96 13 189.5 12.5t177.5 -15.5t155.5 -46t124 -79.5t82 -115.5t29.5 -155q0 -77 -24 -141t-65.5 -114.5 t-98.5 -88.5t-123 -62.5t-138 -37t-145 -12.5q-134 0 -238 28t-189 81z" />
<glyph unicode="6" horiz-adv-x="1418" d="M138 601q0 163 30 289t82 220t123.5 158t153.5 102.5t172 53.5t180 11.5t176.5 -24t162.5 -53.5l-48 -159q-95 38 -187.5 57t-178 15t-160.5 -33.5t-135 -89t-101.5 -150.5t-60.5 -219q42 24 92.5 45t107.5 36t118 23.5t124 8.5q104 0 195.5 -26t160 -77.5t108 -129.5 t39.5 -182q0 -113 -45 -204.5t-121.5 -156.5t-178 -100.5t-214.5 -35.5q-140 0 -250.5 44.5t-187 126t-117 196t-40.5 254.5zM334 576q0 -96 29 -175t83.5 -136t131.5 -88t173 -31q70 0 133 20.5t110 59.5t74.5 94.5t27.5 126.5q0 67 -26 118.5t-70 86.5t-103 53.5 t-126 18.5q-65 0 -128 -11t-120 -29t-105.5 -42t-83.5 -49v-17z" />
<glyph unicode="7" horiz-adv-x="1105" d="M61 1248v168h997v-168q-56 -59 -119 -150t-125.5 -200t-121 -230t-107 -240t-83.5 -229.5t-50 -198.5h-205q23 108 63 228t91 241.5t109.5 239t118.5 221t118.5 188t108.5 140.5q-47 -3 -95 -5q-42 -2 -92.5 -3.5t-98.5 -1.5h-509z" />
<glyph unicode="8" horiz-adv-x="1332" d="M127 397q0 59 20.5 112.5t55 98.5t80.5 78.5t98 51.5v6q-43 12 -81.5 40t-68 68t-46.5 89.5t-17 104.5q0 91 43 163.5t113.5 123t161 77t186.5 26.5q98 0 186.5 -24.5t155 -72t106 -117t39.5 -160.5q0 -50 -15 -97.5t-44 -88.5t-72.5 -74t-101.5 -53v-5 q64 -18 115.5 -49.5t88 -74.5t56 -97t19.5 -117q0 -68 -22 -126t-60.5 -105.5t-91 -83.5t-113.5 -61t-128.5 -37.5t-135.5 -12.5q-106 0 -201.5 25.5t-168 77t-115 130t-42.5 184.5zM320 406q0 -65 29 -113t77.5 -80.5t112.5 -48.5t133 -16q65 0 125.5 14.5t106.5 45 t73.5 77.5t27.5 112q0 64 -31 110.5t-81 76.5t-112.5 44.5t-126.5 14.5q-57 0 -116.5 -13t-107.5 -41.5t-79 -73.5t-31 -109zM363 1062q0 -68 22.5 -116.5t63.5 -79t98 -44.5t125 -14q51 0 103 17.5t94 49.5t68 76.5t26 98.5q0 56 -24.5 97t-66.5 68t-98 40t-120 13 q-53 0 -105 -12.5t-93 -38t-67 -64.5t-26 -91z" />
<glyph unicode="9" horiz-adv-x="1418" d="M146 939q0 113 45 204.5t121.5 156.5t178 100.5t214.5 35.5q140 0 250.5 -44.5t187 -126t117 -196t40.5 -254.5q0 -163 -30 -289t-82 -220t-123.5 -158t-153.5 -102.5t-172 -53.5t-180 -11.5t-176.5 24t-162.5 53.5l48 159q95 -38 187.5 -57t178 -15t160.5 33.5t135 89 t101.5 150.5t60.5 219q-42 -24 -92.5 -45t-107.5 -36t-118 -23.5t-124 -8.5q-104 0 -196 25.5t-160 77.5t-107.5 130t-39.5 182zM342 969q0 -67 25.5 -118.5t70 -87t103.5 -53.5t126 -18q65 0 128 11t120 29t105.5 41.5t83.5 49.5v17q0 96 -29 175t-83.5 136t-131.5 88 t-173 31q-71 0 -133.5 -20.5t-109.5 -59.5t-74.5 -95t-27.5 -126z" />
<glyph unicode=":" horiz-adv-x="527" d="M158 110q0 57 34 90.5t91 33.5q55 0 89 -33.5t34 -90.5q0 -55 -34 -89t-89 -34q-57 0 -91 34t-34 89zM158 690q0 57 34 90.5t91 33.5q55 0 89 -33.5t34 -90.5q0 -55 -34 -89t-89 -34q-57 0 -91 34t-34 89z" />
<glyph unicode=";" horiz-adv-x="527" d="M112 -228q13 18 29.5 50t31.5 69t25.5 74.5t12.5 66.5q-17 11 -34.5 34.5t-17.5 55.5q0 26 10 46.5t27 35t39.5 22.5t47.5 8q27 0 50 -10t39.5 -27t25.5 -40t9 -49q0 -33 -10.5 -70.5t-27.5 -75.5t-38.5 -75t-44.5 -68.5t-44.5 -57t-38.5 -40.5zM158 690q0 57 34 90.5 t91 33.5q55 0 89 -33.5t34 -90.5q0 -55 -34 -89t-89 -34q-57 0 -91 34t-34 89z" />
<glyph unicode="&#x3c;" horiz-adv-x="1318" d="M107 571v172l814 626l113 -148l-721 -553l720 -476l-106 -157z" />
<glyph unicode="=" horiz-adv-x="1336" d="M207 275v154h922v-154h-922zM207 675v154h922v-154h-922z" />
<glyph unicode="&#x3e;" horiz-adv-x="1318" d="M270 194l721 553l-720 476l106 157l820 -536v-172l-814 -626z" />
<glyph unicode="?" horiz-adv-x="1035" d="M82 1342q47 21 101.5 38.5t112 30t116 19t113.5 6.5q77 0 154.5 -14t139.5 -46t101 -84.5t39 -129.5q0 -65 -23.5 -116.5t-61.5 -94.5t-85.5 -80.5t-95 -74.5t-91.5 -76t-74 -84.5t-42.5 -100.5t2.5 -125l-162 -32q-15 84 -4 152t38.5 124t68.5 102t85.5 85.5t89 74.5 t80 69.5t57.5 69.5t22 76q0 44 -23.5 71.5t-60.5 42.5t-82.5 20t-89.5 5q-41 0 -93 -7.5t-105 -19t-101.5 -25.5t-81.5 -28zM317 110q0 57 34 90.5t91 33.5q55 0 89 -33.5t34 -90.5q0 -55 -34 -89t-89 -34q-57 0 -91 34t-34 89z" />
<glyph unicode="@" horiz-adv-x="1932" d="M147 393q0 134 39.5 253t108 219t161.5 180t200 136t223 85.5t231 29.5q139 0 262 -41.5t215 -118.5t145 -188.5t53 -250.5q0 -67 -14.5 -136t-42 -133.5t-67 -121t-89.5 -98.5t-109 -66.5t-126 -24.5q-77 0 -129 34.5t-70 103.5q-24 -23 -55.5 -47.5t-69 -44.5t-81 -33 t-91.5 -13q-67 0 -120 23.5t-90 65.5t-57 99t-20 124q0 60 16.5 119.5t45.5 114t70.5 101.5t90.5 81.5t105.5 54t116.5 19.5q43 0 78 -9t62 -23.5t46.5 -32.5t33.5 -36l13 65h152l-89 -435q-17 -84 2.5 -137t75.5 -53q61 0 108.5 41t80.5 102.5t50 132.5t17 132 q0 114 -41 206t-113.5 157.5t-170.5 100.5t-212 35q-101 0 -199 -29t-186 -80t-162 -121t-127.5 -152.5t-84 -174t-30.5 -185.5q0 -144 51.5 -247.5t142.5 -169.5t214.5 -97.5t267.5 -31.5l-39 -120q-167 0 -311.5 37t-251.5 114.5t-168.5 197.5t-61.5 287zM728 456 q0 -36 8 -70.5t24.5 -62t42.5 -44t62 -16.5q46 0 87.5 15t76.5 37.5t62.5 47.5t46.5 46q2 9 3.5 18.5t4.5 20.5l44 222q-15 14 -38 31.5t-52.5 33.5t-64.5 26.5t-74 10.5q-52 0 -95 -30t-73.5 -76.5t-47.5 -102t-17 -107.5z" />
<glyph unicode="A" horiz-adv-x="1430" d="M25 0l662 1416h105l613 -1416h-202l-134 310h-709l-145 -310h-190zM439 478h558l-128 297q-24 56 -46.5 116t-40.5 112.5t-30 93t-15 57.5h-12q-4 -19 -16 -55.5t-30 -84.5t-41 -104t-50 -114z" />
<glyph unicode="B" horiz-adv-x="1520" d="M184 0v1416h521q108 0 208.5 -13t178.5 -49.5t124.5 -103.5t46.5 -175q0 -46 -17 -89t-43.5 -78.5t-60 -60.5t-66.5 -35q70 -13 128.5 -45t100.5 -80t65 -110.5t23 -135.5q0 -85 -25 -150.5t-69.5 -114.5t-106 -83t-134.5 -54.5t-154.5 -29.5t-166.5 -9h-553zM369 168 h393q81 0 159 10.5t139.5 39t99 79.5t37.5 132q0 82 -38 134.5t-100 82.5t-141.5 41t-161.5 11h-387v-530zM369 866h354q58 0 119.5 9t111 32t81.5 61t32 97q0 63 -37.5 99.5t-95 55t-126.5 23.5t-132 5h-307v-382z" />
<glyph unicode="C" horiz-adv-x="1492" d="M137 693q0 109 27.5 206.5t78.5 180t122 148.5t158 112t187.5 71t209.5 25q147 0 275 -44t227 -122l-93 -148q-75 67 -184.5 107.5t-242.5 40.5q-118 0 -221.5 -41.5t-181 -114.5t-122 -173t-44.5 -218q0 -122 46 -227t126 -183t186.5 -122.5t228.5 -44.5 q59 0 121.5 11.5t121 31.5t110.5 46.5t90 57.5l72 -138q-48 -41 -108 -73t-128 -55t-143 -35t-154 -12q-157 0 -296 52.5t-243.5 147t-165 225.5t-60.5 288z" />
<glyph unicode="D" horiz-adv-x="1600" d="M184 0v1416h581q160 0 293.5 -47t230 -135.5t150.5 -215.5t54 -287q0 -168 -55 -303t-155 -230.5t-239 -146.5t-307 -51h-553zM369 168h393q125 0 224.5 39t168.5 111t105.5 174t36.5 227q0 124 -41.5 222t-115.5 166t-177 104.5t-227 36.5h-367v-1080z" />
<glyph unicode="E" horiz-adv-x="1370" d="M184 0v1416h1057v-168h-872v-382h777v-168h-777v-530h892v-168h-1077z" />
<glyph unicode="F" horiz-adv-x="1248" d="M184 0v1416h957v-168h-772v-602h697v-168h-697v-478h-185z" />
<glyph unicode="G" horiz-adv-x="1704" d="M137 693q0 109 27.5 206.5t78.5 180t122 148.5t158 112t187.5 71t209.5 25q156 0 289.5 -45.5t233.5 -130.5l-104 -142q-38 33 -86 61t-104 48.5t-118.5 31.5t-128.5 11q-118 0 -221.5 -41.5t-181 -114.5t-122 -173t-44.5 -218q0 -128 43.5 -234t121 -182t184.5 -118.5 t235 -42.5q70 0 133 15t116 40.5t96 57.5t73 67v153h-491v168h676v-647h-185v137q-30 -27 -75 -55t-103 -50.5t-127.5 -37t-150.5 -14.5q-105 0 -201 23.5t-178 68t-149.5 107.5t-114.5 142.5t-73 173t-26 198.5z" />
<glyph unicode="H" horiz-adv-x="1607" d="M184 0v1416h185v-769h869v769h185v-1416h-185v479h-869v-479h-185z" />
<glyph unicode="I" horiz-adv-x="553" d="M184 0v1416h185v-1416h-185z" />
<glyph unicode="J" horiz-adv-x="1190" d="M90 473l180 25q0 -67 17 -130t51 -112.5t84.5 -79.5t117.5 -30q78 0 131.5 26.5t87 73.5t48 112.5t14.5 143.5v914h185v-894q0 -125 -29.5 -225t-89.5 -170.5t-152 -108.5t-216 -38q-99 0 -178.5 40t-135 107.5t-85.5 157t-30 188.5z" />
<glyph unicode="K" horiz-adv-x="1404" d="M184 0v1416h190v-705l735 705h239l-770 -734l803 -682h-292l-715 625v-625h-190z" />
<glyph unicode="L" horiz-adv-x="1208" d="M184 0v1416h185v-1248h772v-168h-957z" />
<glyph unicode="M" horiz-adv-x="1947" d="M177 0l110 1415h55l625 -685l624 685h59l120 -1415h-181l-91 1065l-529 -586h-20l-513 577l-80 -1056h-179z" />
<glyph unicode="N" horiz-adv-x="1607" d="M184 0v1416h162l912 -1118v1118h165v-1416h-155l-919 1126v-1126h-165z" />
<glyph unicode="O" horiz-adv-x="1822" d="M137 693q0 109 27.5 206.5t78.5 180t122 148.5t158 112t187.5 71t209.5 25q105 0 202 -24t182 -68t155 -107.5t120.5 -143t78 -173t27.5 -197.5q0 -109 -27.5 -206.5t-78.5 -180t-122 -148.5t-158 -112t-187.5 -71t-209.5 -25q-157 0 -296 52.5t-243.5 147t-165 225.5 t-60.5 288zM333 723q0 -122 46 -227t126 -183t186.5 -122.5t228.5 -44.5q118 0 221.5 41.5t180.5 114.5t122 173t45 218q0 81 -21 155t-59 138.5t-92 116.5t-119 89.5t-140 57.5t-156 20q-118 0 -221.5 -41.5t-181 -114.5t-122 -173t-44.5 -218z" />
<glyph unicode="P" horiz-adv-x="1470" d="M184 0v1416h561q135 0 251.5 -31.5t202.5 -96t135 -163.5t49 -234q0 -140 -52 -248t-142 -182t-211.5 -112.5t-260.5 -38.5h-348v-310h-185zM369 478h373q99 0 181 25.5t140.5 76t91 125.5t32.5 174q0 97 -37 167t-101 115t-150 66t-183 21h-347v-770z" />
<glyph unicode="Q" horiz-adv-x="1823" d="M137 693q0 109 27.5 206.5t78.5 180t122 148.5t158 112t187.5 71t209.5 25q105 0 202 -24t182 -68t155 -107.5t120.5 -143t78 -173t27.5 -197.5q0 -142 -46.5 -264t-129 -216.5t-195.5 -158t-246 -88.5l351 -242l-200 -83l-421 316q-139 16 -259.5 75t-210 151 t-140.5 214t-51 266zM333 723q0 -122 46 -227t126 -183t186.5 -122.5t228.5 -44.5q118 0 221.5 41.5t180.5 114.5t122 173t45 218q0 81 -21 155t-59 138.5t-92 116.5t-119 89.5t-140 57.5t-156 20q-118 0 -221.5 -41.5t-181 -114.5t-122 -173t-44.5 -218z" />
<glyph unicode="R" horiz-adv-x="1550" d="M184 0v1416h581q141 0 261 -18.5t208.5 -67.5t138.5 -133.5t50 -216.5q0 -85 -21 -153.5t-59 -122t-91.5 -93t-118.5 -66.5l269 -545h-215l-243 493q-99 -15 -207 -15h-368v-478h-185zM369 646h393q99 0 184 13t147.5 49t98 98.5t35.5 161.5q0 91 -41.5 146.5t-109.5 85 t-157 39t-183 9.5h-367v-602z" />
<glyph unicode="S" horiz-adv-x="1459" d="M135 161l88 158q56 -36 119 -67t128.5 -54.5t130.5 -36.5t125 -13q74 0 145.5 12.5t127 42t89.5 79t34 123.5q0 54 -27 91.5t-73 63t-107.5 42t-131 29.5t-142.5 25.5t-142.5 30t-131 43t-107.5 64t-73 93t-27 131.5q0 102 51 180t132.5 131t183.5 80t204 27 q73 0 137.5 -7t126 -22.5t122 -40t126.5 -60.5l-68 -163q-47 28 -103 51t-116.5 38.5t-122.5 24t-120 8.5t-120.5 -12.5t-114.5 -38.5t-85.5 -67t-33.5 -99q0 -64 41.5 -102.5t109.5 -62t154.5 -38.5t177 -31.5t177 -40.5t154.5 -65.5t109.5 -107t41.5 -164.5 q0 -118 -51 -204t-136 -142.5t-195 -83.5t-228 -27q-77 0 -155 12t-152.5 35t-143.5 57t-128 78z" />
<glyph unicode="T" horiz-adv-x="1383" d="M67 1248v168h1249v-168h-532v-1248h-185v1248h-532z" />
<glyph unicode="U" horiz-adv-x="1592" d="M153 653v763h185v-733q0 -122 27.5 -221t84.5 -169t145 -108.5t210 -38.5q118 0 202.5 35t139.5 100.5t81 159.5t26 212v763h185v-733q0 -164 -40.5 -294t-122 -221t-204 -139.5t-285.5 -48.5q-157 0 -275.5 46.5t-198 133.5t-120 211.5t-40.5 281.5z" />
<glyph unicode="V" horiz-adv-x="1463" d="M25 1416h207l368 -813q25 -56 46.5 -111.5t38.5 -100.5q19 -53 35 -100h9q14 45 32 94q15 42 35.5 95.5t46.5 109.5l374 826h196l-650 -1436h-88z" />
<glyph unicode="W" horiz-adv-x="2118" d="M47 1416h215l289 -717q23 -57 40.5 -103.5t31.5 -85.5t25.5 -73t22.5 -65h9q13 47 30 100q14 45 32.5 102.5t41.5 120.5l259 721h57l267 -706q21 -57 41 -116t37 -109q19 -58 37 -113h9q18 58 36 118q16 51 35 110.5t39 112.5l255 703h215l-558 -1436h-57l-304 802 q-13 32 -26.5 73t-25.5 78q-14 43 -28 87h-6q-13 -44 -26 -87q-11 -37 -24.5 -77.5t-24.5 -72.5l-289 -803h-57z" />
<glyph unicode="X" horiz-adv-x="1443" d="M43 0l554 714l-550 702h243l428 -547l425 547h221l-535 -688l571 -728h-243l-449 572l-444 -572h-221z" />
<glyph unicode="Y" horiz-adv-x="1291" d="M37 1416h203l413 -647l410 647h191l-510 -809v-607h-185v604z" />
<glyph unicode="Z" horiz-adv-x="1318" d="M107 0v168l873 1081h-873v168h1104v-168l-873 -1081h873v-168h-1104z" />
<glyph unicode="[" horiz-adv-x="733" d="M87 569v129q30 0 57 14t47 39.5t31.5 62t11.5 81.5v330q0 152 63 252.5t174 138.5l68 -107q-71 -39 -104.5 -98t-33.5 -156v-330q0 -106 -35.5 -177.5t-109.5 -105.5q74 -33 109.5 -103.5t35.5 -176.5v-326q0 -49 11.5 -87t32 -68.5t49 -54.5t62.5 -44l-75 -112 q-50 19 -94.5 49t-78.5 72t-54 95.5t-20 119.5v326q0 49 -11.5 92t-31.5 75t-46.5 51t-57.5 19z" />
<glyph unicode="\" horiz-adv-x="997" d="M73 1561h183l668 -2028h-183z" />
<glyph unicode="]" horiz-adv-x="733" d="M163 1504l75 112q49 -19 94 -49t79 -72t54 -95.5t20 -119.5v-326q0 -49 11.5 -92t31.5 -75.5t46.5 -51t57.5 -18.5v-129q-30 0 -57 -14t-47 -39.5t-31.5 -62t-11.5 -81.5v-330q0 -152 -63 -252.5t-174 -138.5l-68 107q71 39 104.5 98t33.5 156v330q0 106 35.5 177.5 t109.5 105.5q-74 33 -109.5 103.5t-35.5 176.5v326q0 49 -11.5 87t-32 68.5t-49 54.5t-62.5 44z" />
<glyph unicode="^" horiz-adv-x="1288" d="M65 722l574 714l584 -713l-107 -98l-483 531l-457 -524z" />
<glyph unicode="_" horiz-adv-x="1236" d="M107 0h1022v-154h-1022v154z" />
<glyph unicode="`" horiz-adv-x="591" d="M60 1408l114 117l333 -286l-91 -91z" />
<glyph unicode="a" horiz-adv-x="1201" d="M112 263q0 73 26 130t73 100t112 74t142.5 50.5t164.5 29t179 11.5q-2 59 -21 98t-54 62t-84.5 32.5t-110.5 9.5q-27 0 -61 -4t-70 -11t-71 -16.5t-63 -20.5l-53 142q38 19 82 32t88.5 21.5t87.5 12.5t80 4q94 0 175 -20.5t139.5 -64.5t92 -112t33.5 -162v-319 q0 -44 3 -80t14.5 -63.5t33 -46.5t59.5 -29l-28 -123q-25 -3 -47 -3q-24 -1 -45 3q-40 6 -69.5 23.5t-49.5 44t-33 60.5q-26 -21 -63 -47t-85.5 -48.5t-107.5 -37.5t-129 -15q-67 0 -128.5 19t-108.5 55.5t-75 89t-28 119.5zM302 276q0 -33 14 -58.5t37 -42.5t53.5 -26 t63.5 -9q56 0 106.5 13.5t94 35.5t79 49.5t59.5 54.5v216q-102 -5 -194 -17.5t-161.5 -39t-110.5 -69t-41 -107.5z" />
<glyph unicode="b" horiz-adv-x="1269" d="M184 20v1541h190v-642q60 45 142.5 73t181.5 28q109 0 197 -37.5t150 -104t95.5 -158t33.5 -200.5q0 -124 -51 -223.5t-137 -170t-199 -108.5t-237 -38q-34 0 -83.5 3.5t-102 9t-101 12.5t-79.5 15zM374 174q18 -8 42 -14t50 -10.5t52.5 -7t49.5 -2.5q87 0 163 25t132 72 t88.5 115.5t32.5 155.5q0 71 -20 135t-58.5 112t-94 76.5t-126.5 28.5q-42 0 -88 -9t-88 -26t-77.5 -43t-57.5 -60v-548z" />
<glyph unicode="c" horiz-adv-x="990" d="M95 498q0 110 38.5 205.5t107 166t162.5 110.5t204 40q95 0 173 -19.5t149 -71.5l-66 -149q-51 38 -122 61t-152 23q-71 0 -127.5 -28.5t-95.5 -77t-60 -113t-21 -135.5q0 -77 21.5 -144t63 -117.5t101 -79.5t136.5 -29q88 0 162.5 18t151.5 56l35 -141 q-35 -26 -80 -43.5t-93.5 -28.5t-99 -16t-95.5 -5q-118 0 -209.5 37t-154.5 104.5t-96 163t-33 213.5z" />
<glyph unicode="d" horiz-adv-x="1269" d="M95 480q0 124 51 223.5t137 170t199 108.5t237 38q57 0 99 -4t77 -11v556h190v-1561h-145l-29 95q-27 -22 -62 -43t-77.5 -37t-93 -25.5t-107.5 -9.5q-109 0 -197 37.5t-150 104t-95.5 158t-33.5 200.5zM285 492q0 -71 20 -135t58 -112t94 -76.5t127 -28.5q50 0 97 9 t87.5 26.5t73 42.5t53.5 58v560q-48 11 -97.5 17.5t-96.5 6.5q-87 0 -163 -25t-132 -72t-88.5 -115.5t-32.5 -155.5z" />
<glyph unicode="e" horiz-adv-x="1106" d="M95 498q0 110 38.5 205.5t107 166t162.5 110.5t204 40q87 0 161 -27t127.5 -80.5t84 -134t30.5 -187.5q0 -45 -6.5 -97t-13.5 -94h-696q22 -121 98 -190.5t215 -69.5q44 0 90.5 5.5t91.5 14.5t86 21.5t73 26.5l32 -143q-36 -21 -84.5 -36.5t-102 -26.5t-107 -16.5 t-98.5 -5.5q-125 0 -218 34t-154 100t-91 162.5t-30 221.5zM286 547h543q0 4 1 11.5t1.5 16t1 15.5t0.5 11q0 56 -15 104t-45.5 83.5t-76.5 55.5t-107 20q-67 0 -120.5 -25t-92.5 -68t-62 -101t-28 -123z" />
<glyph unicode="f" horiz-adv-x="776" d="M19 846v154h185v38q0 116 25.5 212t79.5 165t138 107t200 38q60 0 121 -15.5t109 -38.5l-45 -151q-42 22 -96 35.5t-107 13.5q-73 0 -118.5 -28t-71 -76t-35 -112.5t-9.5 -137.5v-50h386v-154h-386v-846h-191v846h-185z" />
<glyph unicode="g" horiz-adv-x="1229" d="M137 241q0 42 11 81t29 74.5t42 65.5t50 53q-22 34 -34 73.5t-12 84.5q0 82 35.5 146.5t94.5 109t135 68t158 23.5q78 0 151.5 -23.5t130.5 -68.5q22 21 55 38t71.5 29t79.5 18.5t78 6.5l-8 -155q-18 -2 -41.5 -5.5t-48.5 -9.5t-49.5 -14t-43.5 -18q16 -31 25 -64.5 t9 -71.5q0 -82 -35.5 -146t-94.5 -108t-135 -67t-158 -23q-71 0 -138 19t-123 56q-21 -25 -34.5 -56t-13.5 -64q0 -36 34.5 -57t91 -34t129 -21.5t147.5 -18.5t147.5 -25.5t129 -43t91 -70t34.5 -107.5q0 -92 -43.5 -166.5t-114 -127t-160.5 -81t-182 -28.5 q-55 0 -110.5 7.5t-107 23.5t-96.5 41t-78.5 59t-53 78t-19.5 99q0 34 10 68t26.5 65t38 58.5t45.5 49.5q-65 25 -105 67t-40 112zM352 -155q0 -47 28 -79.5t71 -53t94 -30t98 -9.5q51 0 103 10.5t94.5 33.5t69.5 59t27 87q0 34 -22.5 57t-60.5 38t-89 24t-108 15.5 t-118 12.5t-118 16q-31 -34 -50 -81.5t-19 -99.5zM400 682q0 -50 19.5 -86.5t53.5 -61t78 -36.5t94 -12q46 0 88.5 12t74.5 35.5t51 58.5t19 82q0 49 -19.5 86t-53.5 62t-78.5 37t-93.5 12q-47 0 -89 -12t-74 -36t-51 -59.5t-19 -81.5z" />
<glyph unicode="h" horiz-adv-x="1337" d="M184 0v1562l190 -1v-648q29 21 66 40.5t80.5 34t93 23.5t104.5 9q118 0 204 -34t142 -98.5t83 -157.5t27 -211v-519h-189l-1 507q0 80 -13.5 145.5t-46 111.5t-86 71t-133.5 25q-50 0 -100 -9t-94 -27t-79.5 -43.5t-57.5 -58.5v-722h-190z" />
<glyph unicode="i" horiz-adv-x="558" d="M155 1410q0 57 34 90.5t91 33.5q55 0 89 -33.5t34 -90.5q0 -55 -34 -89t-89 -34q-57 0 -91 34t-34 89zM184 0v1000h190v-1000h-190z" />
<glyph unicode="j" horiz-adv-x="558" d="M55 -356q35 21 59.5 44.5t40 54.5t22.5 72.5t7 99.5v1085h190v-1065q0 -83 -13.5 -147.5t-42.5 -115.5t-74 -89t-109 -68zM155 1410q0 57 34 90.5t91 33.5q55 0 89 -33.5t34 -90.5q0 -55 -34 -89t-89 -34q-57 0 -91 34t-34 89z" />
<glyph unicode="k" horiz-adv-x="1112" d="M184 0v1561h190v-1001l449 440h222l-470 -460l280 -302q37 -39 89.5 -68.5t122.5 -34.5l-29 -135q-36 -5 -66 -5q-19 0 -36 2q-44 5 -79 20t-64.5 39t-57.5 55l-361 390v-501h-190z" />
<glyph unicode="l" horiz-adv-x="556" d="M184 328v1233h190v-1219q0 -44 3 -80t14.5 -63.5t33 -46.5t59.5 -30l-28 -122q-27 -4 -51 -4q-51 0 -87 16q-53 24 -83 70.5t-40.5 110.5t-10.5 135z" />
<glyph unicode="m" horiz-adv-x="1902" d="M184 0v1000h145l28 -95q26 23 59 44t71 36.5t81 25t90 9.5q127 0 208 -40t127 -114q24 28 59 55.5t78.5 49.5t94.5 35.5t108 13.5q118 0 196 -34t124.5 -98.5t66 -157.5t19.5 -211v-519h-190v507q0 76 -7 141t-31 112t-69.5 73.5t-121.5 26.5q-40 0 -80 -10.5t-76 -29 t-66 -45t-51 -59.5q9 -45 13 -94t4 -103v-519h-190v507q0 76 -7 141t-31 112t-69.5 73.5t-121.5 26.5q-40 0 -79.5 -10t-75 -28.5t-65.5 -45t-51 -58.5v-718h-190z" />
<glyph unicode="n" horiz-adv-x="1337" d="M184 0v1000h145l29 -99q29 22 67 43.5t83.5 38.5t98 27t111.5 10q118 0 204 -34t142 -98.5t83 -157.5t27 -211v-519h-190v507q0 80 -13.5 145.5t-46 111.5t-86 71t-133.5 25q-50 0 -100 -9t-94 -27t-79.5 -43.5t-57.5 -58.5v-722h-190z" />
<glyph unicode="o" d="M95 492q0 113 45 210t121.5 167.5t178 110.5t214.5 40q115 0 213.5 -37.5t171.5 -105.5t114.5 -163t41.5 -210q0 -113 -45 -209t-121.5 -166t-178 -109.5t-214.5 -39.5q-115 0 -214 37t-171.5 104.5t-114 161.5t-41.5 209zM285 504q0 -80 28 -146.5t77 -115t116.5 -75.5 t147.5 -27q75 0 139 27t111.5 74.5t74 112t26.5 139.5q0 79 -28 146.5t-77 116.5t-117 76.5t-147 27.5q-75 0 -139 -27.5t-111.5 -75.5t-74 -113t-26.5 -140z" />
<glyph unicode="p" horiz-adv-x="1269" d="M184 -467v1467h145l28 -96q27 22 62 43t77.5 37t93 26t108.5 10q109 0 197 -36t150 -100.5t95.5 -154.5t33.5 -199q0 -124 -43.5 -225.5t-120 -173.5t-181.5 -111.5t-229 -39.5q-63 0 -120.5 6t-105.5 16v-469h-190zM374 173q30 -7 63 -13t65 -10.5t62 -7t54 -2.5 q87 0 155 26.5t115 75.5t71.5 119t24.5 157q0 71 -20 133.5t-58.5 109t-94 73t-126.5 26.5q-50 0 -97.5 -9t-88 -26.5t-73 -43t-52.5 -58.5v-550z" />
<glyph unicode="q" horiz-adv-x="1269" d="M95 479q0 124 44 223.5t121.5 170t183.5 108.5t230 38q131 0 233.5 -21.5t177.5 -55.5v-1410h-190v548q-60 -45 -143 -73t-181 -28q-109 0 -197 37.5t-150 104t-95.5 158t-33.5 200.5zM285 491q0 -71 20 -135t58 -112t94 -76.5t127 -28.5q42 0 88 9t88 26t77.5 43 t57.5 60v530q-42 22 -104 37t-135 15q-87 0 -156 -25t-116.5 -72t-73 -115.5t-25.5 -155.5z" />
<glyph unicode="r" horiz-adv-x="850" d="M184 0v1000h157l32 -183q22 40 51.5 77t66 65t79.5 44.5t93 16.5q21 0 38 -1.5t33 -5t32 -9t35 -14.5l-43 -199q-29 17 -67 26.5t-70 9.5q-51 0 -92.5 -32t-73 -81t-52 -107.5t-29.5 -112.5v-494h-190z" />
<glyph unicode="s" horiz-adv-x="988" d="M73 107l71 138q38 -26 82.5 -47t92 -36t95.5 -23t93 -8q39 0 76 8t66.5 26t47 45.5t17.5 66.5q0 36 -25.5 61.5t-68 45t-96 36.5t-110 36t-110 42t-96 56.5t-68 78.5t-25.5 108q0 70 31.5 122.5t84.5 87.5t122 52t144 17q112 0 208.5 -30t162.5 -77l-74 -139 q-26 16 -62.5 33t-78 31t-86.5 22.5t-88 8.5q-31 0 -62 -7t-56 -21.5t-40.5 -36.5t-15.5 -53q0 -35 25.5 -59t67.5 -42.5t96 -35t110 -35t110 -42t96 -57t67.5 -80t25.5 -110.5q0 -80 -34.5 -138.5t-92 -96.5t-132.5 -56.5t-155 -18.5q-56 0 -114 8t-112.5 24t-103 39.5 t-86.5 55.5z" />
<glyph unicode="t" horiz-adv-x="694" d="M58 846v124l246 185h51v-155h286v-154h-286v-404q0 -86 9.5 -141.5t33.5 -90t64.5 -51.5t103.5 -24l-29 -135q-38 -5 -71 -5q-64 0 -112 18q-72 27 -114 84.5t-58.5 139.5t-16.5 177v432h-107z" />
<glyph unicode="u" horiz-adv-x="1295" d="M163 481v519h190v-507q0 -80 11.5 -145t40.5 -111t80 -71.5t131 -25.5q50 0 96.5 10.5t86 29t70.5 44.5t52 57v719h190v-1000h-145l-29 97q-26 -22 -60 -43t-76 -37.5t-91.5 -26.5t-106.5 -10q-124 0 -208 32t-135.5 95t-74 156.5t-22.5 217.5z" />
<glyph unicode="v" horiz-adv-x="1057" d="M40 1000h197l209 -535q16 -42 31.5 -85t27.5 -79q14 -42 26 -82h12l28 88q12 38 26 79.5t28 75.5l210 538h182l-390 -1000h-197z" />
<glyph unicode="w" horiz-adv-x="1613" d="M62 1000h189l136 -433q14 -43 28.5 -98.5t27.5 -106.5q15 -59 30 -119h11q14 57 29 113q13 48 28 102.5t29 99.5l142 442h189l138 -433q16 -50 32 -106t29 -105q15 -57 29 -113h11q14 53 29 108q13 48 29.5 103.5t34.5 109.5l144 436h174l-330 -1000h-174l-246 734 l-235 -734h-174z" />
<glyph unicode="x" horiz-adv-x="1069" d="M46 0l382 509l-372 491h213l272 -362l270 362h202l-372 -495l382 -505h-213l-282 376l-280 -376h-202z" />
<glyph unicode="y" horiz-adv-x="1057" d="M40 1000h197l210 -543q17 -44 31 -89t25 -82q12 -43 22 -83h10q10 33 23 73q11 34 26.5 77.5t35.5 94.5l215 552h182l-395 -1000q-46 -117 -95 -207.5t-103.5 -153t-115.5 -94.5t-131 -32q-41 0 -69.5 9t-60.5 34l32 145q51 -19 118 -19q40 0 73 21.5t60.5 58t51.5 86 t46 106.5l10 26z" />
<glyph unicode="z" horiz-adv-x="954" d="M86 0v148l560 704h-540v148h752v-148l-560 -704h578v-148h-790z" />
<glyph unicode="{" horiz-adv-x="733" d="M193 -331v1947h417v-168h-250v-1610h250v-169h-417z" />
<glyph unicode="|" horiz-adv-x="553" d="M193 -467v2028h167v-2028h-167z" />
<glyph unicode="}" horiz-adv-x="733" d="M179 -162h250v1610h-250v169h417v-1947h-417v168z" />
<glyph unicode="~" horiz-adv-x="1288" d="M157 910q33 79 81 141q20 26 45.5 51.5t56 45.5t66 32t76.5 12q39 0 72.5 -13.5t62.5 -33.5t54.5 -43.5t50 -43.5t49 -33.5t51.5 -13.5q22 0 42.5 7t38.5 19t34 27.5t29 31.5q30 38 54 86l111 -56q-37 -76 -87 -136q-21 -26 -47.5 -50t-57.5 -43t-67 -30.5t-76 -11.5 t-73 13.5t-62 33.5t-54.5 43.5t-50 43.5t-49.5 33.5t-51 13.5q-23 0 -43 -8t-37 -20.5t-32 -29t-27 -33.5q-28 -40 -49 -90z" />
<glyph unicode="&#xa1;" horiz-adv-x="602" d="M163 896q0 55 34 89t89 34q57 0 91 -34t34 -89q0 -57 -34 -90.5t-91 -33.5q-55 0 -89 33.5t-34 90.5zM184 -409l30 1005h145l30 -1005h-205z" />
<glyph unicode="&#xa2;" horiz-adv-x="1065" d="M95 698q0 107 35 196.5t97.5 156.5t149 109.5t188.5 54.5v256h153v-254q86 -6 159.5 -26t121.5 -46l-46 -153q-38 20 -100.5 39t-134.5 27v-715q69 7 141 25t133 48l36 -143q-66 -37 -148.5 -59t-161.5 -30v-280h-153v278q-108 9 -195 48t-148 105t-94 157.5t-33 205.5z M285 710q0 -71 19.5 -132t56 -108t88 -78.5t116.5 -43.5v711q-65 -10 -117 -39.5t-88 -75t-55.5 -105t-19.5 -129.5z" />
<glyph unicode="&#xa3;" horiz-adv-x="1208" d="M128 166q64 35 106.5 74t68.5 81.5t37 88.5t11 94q0 21 -2 42t-6 44h-201v154h171q-10 51 -17.5 106t-7.5 118q0 104 27.5 190.5t81 148.5t133 96t183.5 34q42 0 86 -7.5t84 -20t73.5 -29.5t54.5 -35l-65 -136q-56 37 -119 55.5t-124 18.5q-62 0 -105 -21.5t-70.5 -59.5 t-40 -90.5t-12.5 -113.5q0 -72 10 -134.5t21 -119.5h358v-154h-330q3 -29 3 -56q0 -52 -11 -103t-36.5 -100.5t-68.5 -96.5t-107 -90q60 10 127.5 17t133.5 7h516v-168h-946z" />
<glyph unicode="&#xa4;" horiz-adv-x="1199" d="M59 203l215 191q-36 48 -55.5 106.5t-19.5 127.5t21.5 129t60.5 109l-222 198l110 110l201 -226q51 35 110.5 53.5t125.5 18.5t123 -17t105 -48l196 219l110 -110l-217 -192q36 -48 56 -107t20 -128t-21.5 -128.5t-59.5 -107.5l222 -198l-110 -110l-201 226 q-51 -34 -111 -52.5t-126 -18.5t-123 16.5t-105 47.5l-195 -219zM370 637q0 -53 17 -98.5t48 -78.5t74.5 -52t96.5 -19q49 0 90 19t70.5 51t45.5 75.5t16 93.5q0 53 -17 99t-48 79.5t-74.5 53t-96.5 19.5q-50 0 -90.5 -19.5t-70 -52.5t-45.5 -77t-16 -93z" />
<glyph unicode="&#xa5;" horiz-adv-x="1291" d="M37 1416h203l413 -647l410 647h191l-434 -687h287v-154h-363v-146h363v-154h-363v-275h-185v275h-374v154h374v146h-374v154h293z" />
<glyph unicode="&#xa6;" horiz-adv-x="553" d="M193 353h167v-820h-167v820zM193 741v820h167v-820h-167z" />
<glyph unicode="&#xa7;" horiz-adv-x="1114" d="M137 730q0 69 34 130t89 99q-27 29 -43 68t-16 90q0 70 30.5 129t81.5 101t116.5 65.5t136.5 23.5q99 0 185.5 -35t166.5 -101l-93 -148q-65 57 -137.5 87.5t-139.5 30.5q-30 0 -57.5 -8t-48 -23.5t-33 -38.5t-12.5 -53q0 -39 25 -66t65.5 -46.5t93 -35.5t106.5 -33 t106.5 -39t93 -54t65.5 -77.5t25 -109.5q0 -70 -34 -130.5t-90 -98.5q28 -30 44 -68.5t16 -89.5q0 -71 -30.5 -129.5t-81.5 -100.5t-117 -65.5t-136 -23.5q-99 0 -185.5 35t-166.5 101l93 148q65 -57 137.5 -87.5t139.5 -30.5q30 0 57.5 8t48 23.5t33 38.5t12.5 53 q0 39 -25 66t-65.5 46.5t-93 35.5t-106.5 33t-106.5 39t-93 54t-65.5 77.5t-25 109.5zM333 760q0 -33 17.5 -57t47.5 -42t70 -32.5t84 -28t90 -28t89 -33.5q22 18 36 48t14 69q0 33 -17.5 56.5t-47.5 42t-70 32.5t-84 28t-90.5 28.5t-88.5 33.5q-22 -18 -36 -48t-14 -69z " />
<glyph unicode="&#xa8;" horiz-adv-x="598" d="M-3 1328q0 45 30.5 75.5t75.5 30.5t75.5 -30.5t30.5 -75.5t-30.5 -75.5t-75.5 -30.5t-75.5 30.5t-30.5 75.5zM389 1328q0 45 30.5 75.5t75.5 30.5t75.5 -30.5t30.5 -75.5t-30.5 -75.5t-75.5 -30.5t-75.5 30.5t-30.5 75.5z" />
<glyph unicode="&#xa9;" horiz-adv-x="1584" d="M137 583q0 138 51.5 254t141.5 199t211 129.5t259 46.5q132 0 250 -44.5t206 -124.5t139.5 -191t51.5 -243q0 -138 -51.5 -254t-141.5 -199t-211 -129.5t-259 -46.5q-132 0 -250 44.5t-206 124.5t-139.5 191t-51.5 243zM283 609q0 -107 40.5 -199.5t111 -161t164.5 -108 t201 -39.5q103 0 194.5 36.5t159.5 101t107.5 152.5t39.5 192q0 107 -40.5 200t-111 161.5t-164.5 108t-201 39.5q-104 0 -195 -36.5t-159 -101t-107.5 -153t-39.5 -192.5zM467 595q0 73 27 132.5t74.5 101.5t111.5 65t138 23q109 0 198 -54l-51 -110q-34 19 -74.5 31 t-85.5 12q-94 0 -143 -49t-49 -143q0 -100 52 -151.5t153 -51.5q45 0 92.5 10t98.5 35l27 -104q-16 -12 -42 -23.5t-57.5 -21t-66 -15t-66.5 -5.5q-75 0 -137.5 21.5t-106.5 62t-68.5 100t-24.5 134.5z" />
<glyph unicode="&#xaa;" horiz-adv-x="933" d="M75 1019q0 79 43 134t114.5 89.5t164.5 51t194 18.5q-3 39 -15.5 63.5t-35.5 38t-56 18.5t-76 5q-20 0 -45.5 -3t-52 -8.5t-52 -12.5t-45.5 -15l-40 116q28 13 60 23t65 16.5t65.5 9.5t59.5 3q69 0 130 -15t106.5 -47.5t71.5 -82.5t26 -119v-235q0 -33 3 -58t12 -44 t25.5 -31.5t43.5 -20.5l-24 -103q-77 -10 -125 19t-72 80q-19 -16 -45 -35.5t-60.5 -37t-77 -29t-93.5 -11.5q-53 0 -101.5 15t-85.5 43.5t-59.5 70t-22.5 94.5zM239 1028q0 -52 32.5 -77t84.5 -25q40 0 75 9.5t65 24.5t54 34t42 39v160q-74 -4 -138 -12t-112 -26 t-75.5 -48.5t-27.5 -78.5z" />
<glyph unicode="&#xab;" horiz-adv-x="1204" d="M113 471v60l425 413l96 -91l-301 -337l296 -318l-93 -100zM609 471v60l425 413l96 -91l-301 -337l296 -318l-93 -100z" />
<glyph unicode="&#xac;" horiz-adv-x="1335" d="M207 555v168h921l-1 -572h-185v404h-735z" />
<glyph unicode="&#xad;" horiz-adv-x="1136" d="M207 515v154h722v-154h-722z" />
<glyph unicode="&#xae;" horiz-adv-x="1299" d="M97 1223q0 117 43.5 214t119.5 167.5t177.5 109.5t218.5 39q112 0 211 -37.5t173.5 -105t118 -161t43.5 -205.5q0 -116 -43.5 -213.5t-119.5 -167.5t-177.5 -109t-218.5 -39q-112 0 -211 37.5t-173.5 105t-118 160.5t-43.5 205zM225 1244q0 -89 34 -166t92.5 -134 t137 -90t167.5 -33q86 0 162 30.5t133 84.5t90 127.5t33 159.5q0 89 -34 166.5t-92.5 135t-137 90.5t-167.5 33q-86 0 -162 -31t-133 -85t-90 -128t-33 -160zM419 971v534h232q54 0 103 -9t85.5 -30.5t58.5 -57.5t22 -90q0 -70 -34 -112.5t-90 -64.5l90 -170h-113l-79 148 q-14 -1 -27 -1.5t-27 -0.5h-120v-146h-101zM520 1213h129q33 0 63 3t53.5 13.5t37 30t13.5 52.5t-15.5 52.5t-40 29.5t-56.5 13t-65 3h-119v-197z" />
<glyph unicode="&#xaf;" horiz-adv-x="598" d="M-23 1260v140h644v-140h-644z" />
<glyph unicode="&#xb0;" horiz-adv-x="738" d="M69 1143q0 63 23.5 116.5t64 93t95.5 61.5t118 22t117.5 -21.5t95 -60t63.5 -91.5t23 -116t-23.5 -116.5t-64 -92t-95.5 -60.5t-118 -22t-117.5 21t-95 59.5t-63.5 91t-23 115.5zM206 1147q0 -38 11.5 -69t33 -53.5t51.5 -35t68 -12.5q75 0 118.5 45.5t43.5 120.5 q0 37 -11.5 69t-33 54.5t-52 35.5t-67.5 13q-75 0 -118.5 -46.5t-43.5 -121.5z" />
<glyph unicode="&#xb1;" horiz-adv-x="1336" d="M207 60v168h922v-168h-922zM207 796v168h368v386h185v-386h369v-168h-369v-386h-185v386h-368z" />
<glyph unicode="&#xb2;" horiz-adv-x="962" d="M167 1706q31 15 68 28.5t76 23.5t79 15.5t76 5.5q70 0 131.5 -15.5t108 -48.5t73.5 -83.5t27 -120.5q0 -51 -16 -96.5t-44.5 -88t-69 -83t-88.5 -80.5l-173 -145h404v-152h-629v147l216 183q50 43 91.5 83t71 78t46 74.5t16.5 72.5q0 34 -15.5 59t-41.5 41t-59 23.5 t-67 7.5q-29 0 -60.5 -5t-62.5 -13t-60.5 -19t-54.5 -24z" />
<glyph unicode="&#xb3;" horiz-adv-x="939" d="M125 917l44 145q52 -29 123 -47.5t146 -18.5q35 0 66 7t54.5 21t37 36.5t13.5 54.5q0 49 -24.5 78t-69 43t-107.5 14.5t-140 -8.5v156q26 -1 50 -2q20 -1 41 -1h33q37 0 71 8.5t60 26t42 44t16 63.5q0 28 -12.5 47t-33 29.5t-47.5 15t-55 4.5q-29 0 -60 -3t-60.5 -9 t-56.5 -14.5t-48 -19.5l-44 129q28 14 64 25.5t74.5 20t77 13t71.5 4.5q58 0 113 -14.5t98 -44t68.5 -73.5t25.5 -102q0 -64 -37.5 -118t-111.5 -80v-6q87 -22 133 -80t46 -141q0 -69 -31.5 -120t-82.5 -85t-117 -50.5t-135 -16.5q-86 0 -163.5 18t-131.5 51z" />
<glyph unicode="&#xb4;" horiz-adv-x="598" d="M86 1235l333 286l116 -116l-356 -260z" />
<glyph unicode="&#xb5;" horiz-adv-x="1317" d="M163 -335v1335h190v-507q0 -82 13 -147.5t45 -111t85.5 -70t135.5 -24.5q50 0 97 10.5t87.5 29.5t73 45t53.5 57v718h190v-1000h-145l-30 98q-27 -22 -61.5 -43.5t-77.5 -38t-93 -26.5t-107 -10q-96 0 -167.5 17.5t-125.5 52.5q17 -69 22.5 -132t5.5 -117v-136h-191z" />
<glyph unicode="&#x3bc;" horiz-adv-x="1317" d="M163 -335v1335h190v-507q0 -82 13 -147.5t45 -111t85.5 -70t135.5 -24.5q50 0 97 10.5t87.5 29.5t73 45t53.5 57v718h190v-1000h-145l-30 98q-27 -22 -61.5 -43.5t-77.5 -38t-93 -26.5t-107 -10q-96 0 -167.5 17.5t-125.5 52.5q17 -69 22.5 -132t5.5 -117v-136h-191z" />
<glyph unicode="&#xb6;" horiz-adv-x="1226" d="M127 1060q0 90 38.5 156.5t102 111t147 66t173.5 21.5h474v-1519h-147v1389h-197v-1389h-151v808q-90 0 -170 22t-140 66t-95 111t-35 157z" />
<glyph unicode="&#xb7;" horiz-adv-x="562" d="M126 550q0 71 42.5 113t113.5 42q69 0 111.5 -42t42.5 -113q0 -69 -42.5 -111.5t-111.5 -42.5q-71 0 -113.5 42.5t-42.5 111.5z" />
<glyph unicode="&#xb8;" horiz-adv-x="598" d="M144 -209q6 23 15.5 50.5t21 55t23.5 54t23 46.5l107 -12q-8 -18 -14 -34q-6 -14 -11.5 -28t-7.5 -23q64 -16 100.5 -54t36.5 -95q0 -34 -20.5 -68.5t-52 -66t-70 -58t-75.5 -44.5l-74 75q20 15 40.5 31.5t37 33.5t27 34t10.5 33q0 13 -11 24t-28.5 20t-38 15.5 t-39.5 10.5z" />
<glyph unicode="&#xb9;" horiz-adv-x="710" d="M61 1613l277 149h165v-896h-177v727l-213 -121z" />
<glyph unicode="&#xba;" horiz-adv-x="938" d="M69 1174q0 84 32 155.5t87.5 124t129.5 82.5t158 30t156 -28t124.5 -78.5t82.5 -121t30 -155.5q0 -84 -32 -155t-87.5 -123t-129.5 -81.5t-158 -29.5t-156 27.5t-124.5 78t-82.5 120.5t-30 154zM235 1183q0 -54 17.5 -100.5t49 -80.5t76 -53t98.5 -19q51 0 92.5 19 t71.5 52t46.5 77.5t16.5 95.5q0 54 -17.5 101t-49 81.5t-76 54t-98.5 19.5q-51 0 -92.5 -19.5t-71.5 -53.5t-46.5 -78.5t-16.5 -95.5z" />
<glyph unicode="&#xbb;" horiz-adv-x="1204" d="M96 189l301 337l-296 318l93 100l423 -373v-60l-425 -413zM592 189l301 337l-296 318l93 100l423 -373v-60l-425 -413z" />
<glyph unicode="&#xbc;" horiz-adv-x="1871" d="M28 -167l1617 1928l121 -100l-1617 -1928zM61 1613l277 149h165v-896h-177v727l-213 -121zM946 41l472 588h177v-541h177v-151h-177v-203h-177v203h-439zM1156 88h262v336z" />
<glyph unicode="&#xbd;" horiz-adv-x="1931" d="M28 -167l1617 1928l121 -100l-1617 -1928zM61 1613l277 149h165v-896h-177v727l-213 -121zM1136 574q31 15 68 28.5t76 23.5t79 15.5t76 5.5q70 0 131.5 -15.5t108 -48.5t73.5 -83.5t27 -120.5q0 -51 -16 -96.5t-44.5 -88t-69 -83t-88.5 -80.5l-173 -145h404v-152h-629 v147l216 183q50 43 91.5 83t71 78t46 74.5t16.5 72.5q0 34 -15.5 59t-41.5 41t-59 23.5t-67 7.5q-29 0 -60.5 -5t-62.5 -13t-60.5 -19t-54.5 -24z" />
<glyph unicode="&#xbe;" horiz-adv-x="1981" d="M125 917l44 145q52 -29 123 -47.5t146 -18.5q35 0 66 7t54.5 21t37 36.5t13.5 54.5q0 49 -24.5 78t-69 43t-107.5 14.5t-140 -8.5v156q26 -1 50 -2q20 -1 41 -1h33q37 0 71 8.5t60 26t42 44t16 63.5q0 28 -12.5 47t-33 29.5t-47.5 15t-55 4.5q-29 0 -60 -3t-60.5 -9 t-56.5 -14.5t-48 -19.5l-44 129q28 14 64 25.5t74.5 20t77 13t71.5 4.5q58 0 113 -14.5t98 -44t68.5 -73.5t25.5 -102q0 -64 -37.5 -118t-111.5 -80v-6q87 -22 133 -80t46 -141q0 -69 -31.5 -120t-82.5 -85t-117 -50.5t-135 -16.5q-86 0 -163.5 18t-131.5 51zM138 -167 l1617 1928l121 -100l-1617 -1928zM1056 41l472 588h177v-541h177v-151h-177v-203h-177v203h-439zM1266 88h262v336z" />
<glyph unicode="&#xbf;" horiz-adv-x="1035" d="M68 -155q0 65 23.5 116.5t61.5 94.5t85.5 80.5t95 74.5t91.5 76t74 84.5t42.5 100.5t-2.5 125l162 32q15 -84 4 -152t-38.5 -124t-68.5 -102t-85.5 -85.5t-89 -74.5t-80 -69.5t-57.5 -70t-22 -75.5q0 -44 23.5 -71.5t60.5 -42.5t82.5 -20t89.5 -5q40 0 92.5 7.5t105.5 19 t101.5 25.5t81.5 28l44 -152q-47 -21 -101.5 -38.5t-112 -30t-116 -19t-113.5 -6.5q-77 0 -154.5 14t-139.5 46t-101 84.5t-39 129.5zM462 897q0 55 34 89t89 34q57 0 91 -34t34 -89q0 -57 -34 -90.5t-91 -33.5q-55 0 -89 33.5t-34 90.5z" />
<glyph unicode="&#xc0;" horiz-adv-x="1430" d="M25 0l662 1416h105l613 -1416h-202l-134 310h-709l-145 -310h-190zM356 1723l84 139l485 -211l-66 -109zM439 478h558l-128 297q-24 56 -46.5 116t-40.5 112.5t-30 93t-15 57.5h-12q-4 -19 -16 -55.5t-30 -84.5t-41 -104t-50 -114z" />
<glyph unicode="&#xc1;" horiz-adv-x="1430" d="M25 0l662 1416h105l613 -1416h-202l-134 310h-709l-145 -310h-190zM439 478h558l-128 297q-24 56 -46.5 116t-40.5 112.5t-30 93t-15 57.5h-12q-4 -19 -16 -55.5t-30 -84.5t-41 -104t-50 -114zM560 1646l485 230l89 -137l-502 -201z" />
<glyph unicode="&#xc2;" horiz-adv-x="1430" d="M25 0l662 1416h105l613 -1416h-202l-134 310h-709l-145 -310h-190zM343 1622l390 264l398 -261l-103 -89l-301 166l-293 -167zM439 478h558l-128 297q-24 56 -46.5 116t-40.5 112.5t-30 93t-15 57.5h-12q-4 -19 -16 -55.5t-30 -84.5t-41 -104t-50 -114z" />
<glyph unicode="&#xc3;" horiz-adv-x="1430" d="M25 0l662 1416h105l613 -1416h-202l-134 310h-709l-145 -310h-190zM337 1644q28 46 68 82q35 31 86.5 56.5t121.5 25.5q40 0 80.5 -14t77.5 -30.5t68 -30t54 -13.5q30 0 53.5 13.5t40.5 30.5q19 19 35 44l98 -62q-24 -49 -60 -87q-16 -16 -36 -31.5t-44.5 -27.5 t-54 -19.5t-64.5 -7.5q-41 0 -81 13.5t-77 30t-68.5 30.5t-53.5 14q-30 0 -55.5 -13.5t-44.5 -30.5q-22 -19 -39 -44zM439 478h558l-128 297q-24 56 -46.5 116t-40.5 112.5t-30 93t-15 57.5h-12q-4 -19 -16 -55.5t-30 -84.5t-41 -104t-50 -114z" />
<glyph unicode="&#xc4;" horiz-adv-x="1430" d="M25 0l662 1416h105l613 -1416h-202l-134 310h-709l-145 -310h-190zM380 1678q0 45 30.5 75.5t75.5 30.5t75.5 -30.5t30.5 -75.5t-30.5 -75.5t-75.5 -30.5t-75.5 30.5t-30.5 75.5zM439 478h558l-128 297q-24 56 -46.5 116t-40.5 112.5t-30 93t-15 57.5h-12 q-4 -19 -16 -55.5t-30 -84.5t-41 -104t-50 -114zM872 1678q0 45 30.5 75.5t75.5 30.5t75.5 -30.5t30.5 -75.5t-30.5 -75.5t-75.5 -30.5t-75.5 30.5t-30.5 75.5z" />
<glyph unicode="&#xc5;" horiz-adv-x="1430" d="M25 0l662 1416h105l613 -1416h-202l-134 310h-709l-145 -310h-190zM439 478h558l-128 297q-24 56 -46.5 116t-40.5 112.5t-30 93t-15 57.5h-12q-4 -19 -16 -55.5t-30 -84.5t-41 -104t-50 -114zM513 1711q0 48 19 86.5t52 66t76 42t91 14.5q49 0 90 -13t71 -38.5t47 -62.5 t17 -86q0 -48 -19.5 -86t-52 -65t-76 -41t-91.5 -14q-49 0 -90 12.5t-71 37t-46.5 61.5t-16.5 86zM631 1720q0 -52 34 -77.5t86 -25.5q45 0 76 24.5t31 69.5q0 52 -34.5 79t-86.5 27q-45 0 -75.5 -26t-30.5 -71z" />
<glyph unicode="&#xc6;" horiz-adv-x="2118" d="M-65 0l1017 1416h1037v-168h-852v-382h757v-168h-757v-530h872v-168h-1057v277h-620l-197 -277h-200zM451 445h501v704z" />
<glyph unicode="&#xc7;" horiz-adv-x="1492" d="M137 693q0 109 27.5 206.5t78.5 180t122 148.5t158 112t187.5 71t209.5 25q147 0 275 -44t227 -122l-93 -148q-75 67 -184.5 107.5t-242.5 40.5q-118 0 -221.5 -41.5t-181 -114.5t-122 -173t-44.5 -218q0 -122 46 -227t126 -183t186.5 -122.5t228.5 -44.5 q59 0 121.5 11.5t121 31.5t110.5 46.5t90 57.5l72 -138q-48 -41 -108 -73t-128 -55t-143 -35t-154 -12h-14q-7 0 -14 1q-2 -5 -6.5 -15.5t-9.5 -22.5t-9 -23.5t-6 -19.5q64 -16 100.5 -54t36.5 -95q0 -34 -20.5 -68.5t-52 -66t-70 -58t-75.5 -44.5l-74 75q20 15 40.5 31.5 t37 33.5t27 34t10.5 33q0 13 -11 24t-28.5 20t-38 15.5t-39.5 10.5q5 22 14 48.5t20 53t22.5 52t22.5 46.5q-133 21 -247.5 81t-199 151.5t-133 210.5t-48.5 259z" />
<glyph unicode="&#xc8;" horiz-adv-x="1370" d="M184 0v1416h1057v-168h-872v-382h777v-168h-777v-530h892v-168h-1077zM416 1723l84 139l485 -211l-66 -109z" />
<glyph unicode="&#xc9;" horiz-adv-x="1370" d="M184 0v1416h1057v-168h-872v-382h777v-168h-777v-530h892v-168h-1077zM468 1646l485 230l89 -137l-502 -201z" />
<glyph unicode="&#xca;" horiz-adv-x="1370" d="M184 0v1416h1057v-168h-872v-382h777v-168h-777v-530h892v-168h-1077zM331 1622l390 264l398 -261l-103 -89l-301 166l-293 -167z" />
<glyph unicode="&#xcb;" horiz-adv-x="1370" d="M184 0v1416h1057v-168h-872v-382h777v-168h-777v-530h892v-168h-1077zM333 1678q0 45 30.5 75.5t75.5 30.5t75.5 -30.5t30.5 -75.5t-30.5 -75.5t-75.5 -30.5t-75.5 30.5t-30.5 75.5zM825 1678q0 45 30.5 75.5t75.5 30.5t75.5 -30.5t30.5 -75.5t-30.5 -75.5t-75.5 -30.5 t-75.5 30.5t-30.5 75.5z" />
<glyph unicode="&#xcc;" horiz-adv-x="553" d="M-63 1723l84 139l485 -211l-66 -109zM184 0v1416h185v-1416h-185z" />
<glyph unicode="&#xcd;" horiz-adv-x="553" d="M30 1646l485 230l89 -137l-502 -201zM184 0v1416h185v-1416h-185z" />
<glyph unicode="&#xce;" horiz-adv-x="553" d="M-117 1622l390 264l398 -261l-103 -89l-301 166l-293 -167zM184 0v1416h185v-1416h-185z" />
<glyph unicode="&#xcf;" horiz-adv-x="553" d="M-75 1678q0 45 30.5 75.5t75.5 30.5t75.5 -30.5t30.5 -75.5t-30.5 -75.5t-75.5 -30.5t-75.5 30.5t-30.5 75.5zM184 0v1416h185v-1416h-185zM417 1678q0 45 30.5 75.5t75.5 30.5t75.5 -30.5t30.5 -75.5t-30.5 -75.5t-75.5 -30.5t-75.5 30.5t-30.5 75.5z" />
<glyph unicode="&#xd0;" horiz-adv-x="1631" d="M27 706v154h258v556h581q160 0 293.5 -47t230 -135.5t150.5 -215.5t54 -287q0 -168 -55 -303t-155 -230.5t-239 -146.5t-307 -51h-553v706h-258zM470 168h393q125 0 224.5 39t168.5 111t105.5 174t36.5 227q0 124 -41.5 222t-115.5 166t-177 104.5t-227 36.5h-367v-388 h499v-154h-499v-538z" />
<glyph unicode="&#xd1;" horiz-adv-x="1607" d="M184 0v1416h162l912 -1118v1118h165v-1416h-155l-919 1126v-1126h-165zM401 1644q28 46 68 82q35 31 86.5 56.5t121.5 25.5q40 0 80.5 -14t77.5 -30.5t68 -30t54 -13.5q30 0 53.5 13.5t40.5 30.5q19 19 35 44l98 -62q-24 -49 -60 -87q-16 -16 -36 -31.5t-44.5 -27.5 t-54 -19.5t-64.5 -7.5q-41 0 -81 13.5t-77 30t-68.5 30.5t-53.5 14q-30 0 -55.5 -13.5t-44.5 -30.5q-22 -19 -39 -44z" />
<glyph unicode="&#xd2;" horiz-adv-x="1822" d="M137 693q0 109 27.5 206.5t78.5 180t122 148.5t158 112t187.5 71t209.5 25q105 0 202 -24t182 -68t155 -107.5t120.5 -143t78 -173t27.5 -197.5q0 -109 -27.5 -206.5t-78.5 -180t-122 -148.5t-158 -112t-187.5 -71t-209.5 -25q-157 0 -296 52.5t-243.5 147t-165 225.5 t-60.5 288zM333 723q0 -122 46 -227t126 -183t186.5 -122.5t228.5 -44.5q118 0 221.5 41.5t180.5 114.5t122 173t45 218q0 81 -21 155t-59 138.5t-92 116.5t-119 89.5t-140 57.5t-156 20q-118 0 -221.5 -41.5t-181 -114.5t-122 -173t-44.5 -218zM651 1723l84 139l485 -211 l-66 -109z" />
<glyph unicode="&#xd3;" horiz-adv-x="1822" d="M137 693q0 109 27.5 206.5t78.5 180t122 148.5t158 112t187.5 71t209.5 25q105 0 202 -24t182 -68t155 -107.5t120.5 -143t78 -173t27.5 -197.5q0 -109 -27.5 -206.5t-78.5 -180t-122 -148.5t-158 -112t-187.5 -71t-209.5 -25q-157 0 -296 52.5t-243.5 147t-165 225.5 t-60.5 288zM333 723q0 -122 46 -227t126 -183t186.5 -122.5t228.5 -44.5q118 0 221.5 41.5t180.5 114.5t122 173t45 218q0 81 -21 155t-59 138.5t-92 116.5t-119 89.5t-140 57.5t-156 20q-118 0 -221.5 -41.5t-181 -114.5t-122 -173t-44.5 -218zM644 1646l485 230l89 -137 l-502 -201z" />
<glyph unicode="&#xd4;" horiz-adv-x="1822" d="M137 693q0 109 27.5 206.5t78.5 180t122 148.5t158 112t187.5 71t209.5 25q105 0 202 -24t182 -68t155 -107.5t120.5 -143t78 -173t27.5 -197.5q0 -109 -27.5 -206.5t-78.5 -180t-122 -148.5t-158 -112t-187.5 -71t-209.5 -25q-157 0 -296 52.5t-243.5 147t-165 225.5 t-60.5 288zM333 723q0 -122 46 -227t126 -183t186.5 -122.5t228.5 -44.5q118 0 221.5 41.5t180.5 114.5t122 173t45 218q0 81 -21 155t-59 138.5t-92 116.5t-119 89.5t-140 57.5t-156 20q-118 0 -221.5 -41.5t-181 -114.5t-122 -173t-44.5 -218zM517 1622l390 264l398 -261 l-103 -89l-301 166l-293 -167z" />
<glyph unicode="&#xd5;" horiz-adv-x="1822" d="M137 693q0 109 27.5 206.5t78.5 180t122 148.5t158 112t187.5 71t209.5 25q105 0 202 -24t182 -68t155 -107.5t120.5 -143t78 -173t27.5 -197.5q0 -109 -27.5 -206.5t-78.5 -180t-122 -148.5t-158 -112t-187.5 -71t-209.5 -25q-157 0 -296 52.5t-243.5 147t-165 225.5 t-60.5 288zM333 723q0 -122 46 -227t126 -183t186.5 -122.5t228.5 -44.5q118 0 221.5 41.5t180.5 114.5t122 173t45 218q0 81 -21 155t-59 138.5t-92 116.5t-119 89.5t-140 57.5t-156 20q-118 0 -221.5 -41.5t-181 -114.5t-122 -173t-44.5 -218zM508 1644q28 46 68 82 q35 31 86.5 56.5t121.5 25.5q40 0 80.5 -14t77.5 -30.5t68 -30t54 -13.5q30 0 53.5 13.5t40.5 30.5q19 19 35 44l98 -62q-24 -49 -60 -87q-16 -16 -36 -31.5t-44.5 -27.5t-54 -19.5t-64.5 -7.5q-41 0 -81 13.5t-77 30t-68.5 30.5t-53.5 14q-30 0 -55.5 -13.5t-44.5 -30.5 q-22 -19 -39 -44z" />
<glyph unicode="&#xd6;" horiz-adv-x="1822" d="M137 693q0 109 27.5 206.5t78.5 180t122 148.5t158 112t187.5 71t209.5 25q105 0 202 -24t182 -68t155 -107.5t120.5 -143t78 -173t27.5 -197.5q0 -109 -27.5 -206.5t-78.5 -180t-122 -148.5t-158 -112t-187.5 -71t-209.5 -25q-157 0 -296 52.5t-243.5 147t-165 225.5 t-60.5 288zM333 723q0 -122 46 -227t126 -183t186.5 -122.5t228.5 -44.5q118 0 221.5 41.5t180.5 114.5t122 173t45 218q0 81 -21 155t-59 138.5t-92 116.5t-119 89.5t-140 57.5t-156 20q-118 0 -221.5 -41.5t-181 -114.5t-122 -173t-44.5 -218zM559 1678q0 45 30.5 75.5 t75.5 30.5t75.5 -30.5t30.5 -75.5t-30.5 -75.5t-75.5 -30.5t-75.5 30.5t-30.5 75.5zM1051 1678q0 45 30.5 75.5t75.5 30.5t75.5 -30.5t30.5 -75.5t-30.5 -75.5t-75.5 -30.5t-75.5 30.5t-30.5 75.5z" />
<glyph unicode="&#xd7;" horiz-adv-x="1336" d="M236 216l307 307l-307 308l131 130l307 -307l307 307l118 -118l-307 -307l307 -307l-130 -131l-308 307l-307 -307z" />
<glyph unicode="&#xd8;" horiz-adv-x="1822" d="M137 693q0 109 27.5 206.5t78.5 180t122 148.5t158 112t187.5 71t209.5 25q98 0 189 -21t172 -60l134 181l134 -94l-128 -174q60 -48 109 -107t83.5 -128t53 -147t18.5 -163q0 -109 -27.5 -206.5t-78.5 -180t-122 -148.5t-158 -112t-187.5 -71t-209.5 -25 q-101 0 -194.5 21.5t-176.5 63.5l-139 -189l-134 94l135 183q-118 96 -187 233.5t-69 306.5zM333 723q0 -124 47 -230t128 -184l663 897q-61 31 -128.5 47.5t-140.5 16.5q-118 0 -221.5 -41.5t-181 -114.5t-122 -173t-44.5 -218zM641 214q63 -33 133 -50.5t146 -17.5 q118 0 221.5 41.5t180.5 114.5t122 173t45 218q0 126 -49 234t-134 186z" />
<glyph unicode="&#xd9;" horiz-adv-x="1592" d="M153 653v763h185v-733q0 -122 27.5 -221t84.5 -169t145 -108.5t210 -38.5q118 0 202.5 35t139.5 100.5t81 159.5t26 212v763h185v-733q0 -164 -40.5 -294t-122 -221t-204 -139.5t-285.5 -48.5q-157 0 -275.5 46.5t-198 133.5t-120 211.5t-40.5 281.5zM400 1723l84 139 l485 -211l-66 -109z" />
<glyph unicode="&#xda;" horiz-adv-x="1592" d="M153 653v763h185v-733q0 -122 27.5 -221t84.5 -169t145 -108.5t210 -38.5q118 0 202.5 35t139.5 100.5t81 159.5t26 212v763h185v-733q0 -164 -40.5 -294t-122 -221t-204 -139.5t-285.5 -48.5q-157 0 -275.5 46.5t-198 133.5t-120 211.5t-40.5 281.5zM639 1646l485 230 l89 -137l-502 -201z" />
<glyph unicode="&#xdb;" horiz-adv-x="1592" d="M153 653v763h185v-733q0 -122 27.5 -221t84.5 -169t145 -108.5t210 -38.5q118 0 202.5 35t139.5 100.5t81 159.5t26 212v763h185v-733q0 -164 -40.5 -294t-122 -221t-204 -139.5t-285.5 -48.5q-157 0 -275.5 46.5t-198 133.5t-120 211.5t-40.5 281.5zM402 1622l390 264 l398 -261l-103 -89l-301 166l-293 -167z" />
<glyph unicode="&#xdc;" horiz-adv-x="1592" d="M153 653v763h185v-733q0 -122 27.5 -221t84.5 -169t145 -108.5t210 -38.5q118 0 202.5 35t139.5 100.5t81 159.5t26 212v763h185v-733q0 -164 -40.5 -294t-122 -221t-204 -139.5t-285.5 -48.5q-157 0 -275.5 46.5t-198 133.5t-120 211.5t-40.5 281.5zM444 1678 q0 45 30.5 75.5t75.5 30.5t75.5 -30.5t30.5 -75.5t-30.5 -75.5t-75.5 -30.5t-75.5 30.5t-30.5 75.5zM936 1678q0 45 30.5 75.5t75.5 30.5t75.5 -30.5t30.5 -75.5t-30.5 -75.5t-75.5 -30.5t-75.5 30.5t-30.5 75.5z" />
<glyph unicode="&#xdd;" horiz-adv-x="1291" d="M37 1416h203l413 -647l410 647h191l-510 -809v-607h-185v604zM378 1646l485 230l89 -137l-502 -201z" />
<glyph unicode="&#xde;" horiz-adv-x="1440" d="M184 0v1416h185v-195h326q132 0 248 -25t203 -81t137 -147t50 -223t-54.5 -227.5t-146.5 -157t-212.5 -91t-252.5 -29.5h-298v-240h-185zM369 408h323q90 0 171 17t141.5 55.5t96.5 100.5t36 152t-40 151t-105.5 98.5t-150.5 54t-175 16.5h-297v-645z" />
<glyph unicode="&#xdf;" horiz-adv-x="1212" d="M184 0v1038q0 116 25.5 212t79.5 165t138 107t200 38q60 0 121 -15.5t109 -38.5l-45 -151q-42 22 -96 35.5t-107 13.5q-73 0 -118.5 -28t-71 -76t-35 -112.5t-9.5 -137.5v-50h718v-148l-347 -429q73 -14 140 -45.5t117 -78t80 -106.5t30 -131q0 -79 -25 -146.5 t-68 -124.5t-101 -102.5t-125 -80t-139.5 -58t-143.5 -35.5l-57 143q94 24 177.5 55.5t146 75.5t99 102t36.5 133q0 69 -29 116.5t-79.5 77.5t-120 43.5t-150.5 13.5v148l347 429h-506v-852h-191z" />
<glyph unicode="&#xe0;" horiz-adv-x="1201" d="M112 263q0 73 26 130t73 100t112 74t142.5 50.5t164.5 29t179 11.5q-2 59 -21 98t-54 62t-84.5 32.5t-110.5 9.5q-27 0 -61 -4t-70 -11t-71 -16.5t-63 -20.5l-53 142q38 19 82 32t88.5 21.5t87.5 12.5t80 4q94 0 175 -20.5t139.5 -64.5t92 -112t33.5 -162v-319 q0 -44 3 -80t14.5 -63.5t33 -46.5t59.5 -29l-28 -123q-52 -6 -92 0.5t-69.5 23.5t-49.5 43.5t-33 60.5q-26 -21 -63 -47t-85.5 -48.5t-107.5 -37.5t-129 -15q-67 0 -128.5 19t-108.5 55.5t-75 89t-28 119.5zM280 1408l114 117l333 -286l-91 -91zM302 276q0 -33 14 -58.5 t37 -42.5t53.5 -26t63.5 -9q56 0 106.5 13.5t94 35.5t79 49.5t59.5 54.5v216q-102 -5 -194 -17.5t-161.5 -39t-110.5 -69t-41 -107.5z" />
<glyph unicode="&#xe1;" horiz-adv-x="1201" d="M112 263q0 73 26 130t73 100t112 74t142.5 50.5t164.5 29t179 11.5q-2 59 -21 98t-54 62t-84.5 32.5t-110.5 9.5q-27 0 -61 -4t-70 -11t-71 -16.5t-63 -20.5l-53 142q38 19 82 32t88.5 21.5t87.5 12.5t80 4q94 0 175 -20.5t139.5 -64.5t92 -112t33.5 -162v-319 q0 -44 3 -80t14.5 -63.5t33 -46.5t59.5 -29l-28 -123q-52 -6 -92 0.5t-69.5 23.5t-49.5 43.5t-33 60.5q-26 -21 -63 -47t-85.5 -48.5t-107.5 -37.5t-129 -15q-67 0 -128.5 19t-108.5 55.5t-75 89t-28 119.5zM302 276q0 -33 14 -58.5t37 -42.5t53.5 -26t63.5 -9 q56 0 106.5 13.5t94 35.5t79 49.5t59.5 54.5v216q-102 -5 -194 -17.5t-161.5 -39t-110.5 -69t-41 -107.5zM451 1235l333 286l116 -116l-356 -260z" />
<glyph unicode="&#xe2;" horiz-adv-x="1201" d="M112 263q0 73 26 130t73 100t112 74t142.5 50.5t164.5 29t179 11.5q-2 59 -21 98t-54 62t-84.5 32.5t-110.5 9.5q-27 0 -61 -4t-70 -11t-71 -16.5t-63 -20.5l-53 142q38 19 82 32t88.5 21.5t87.5 12.5t80 4q94 0 175 -20.5t139.5 -64.5t92 -112t33.5 -162v-319 q0 -44 3 -80t14.5 -63.5t33 -46.5t59.5 -29l-28 -123q-52 -6 -92 0.5t-69.5 23.5t-49.5 43.5t-33 60.5q-26 -21 -63 -47t-85.5 -48.5t-107.5 -37.5t-129 -15q-67 0 -128.5 19t-108.5 55.5t-75 89t-28 119.5zM293 1232l310 294l308 -292l-93 -89l-221 185l-213 -185zM302 276 q0 -33 14 -58.5t37 -42.5t53.5 -26t63.5 -9q56 0 106.5 13.5t94 35.5t79 49.5t59.5 54.5v216q-102 -5 -194 -17.5t-161.5 -39t-110.5 -69t-41 -107.5z" />
<glyph unicode="&#xe3;" horiz-adv-x="1201" d="M112 263q0 73 26 130t73 100t112 74t142.5 50.5t164.5 29t179 11.5q-2 59 -21 98t-54 62t-84.5 32.5t-110.5 9.5q-27 0 -61 -4t-70 -11t-71 -16.5t-63 -20.5l-53 142q38 19 82 32t88.5 21.5t87.5 12.5t80 4q94 0 175 -20.5t139.5 -64.5t92 -112t33.5 -162v-319 q0 -44 3 -80t14.5 -63.5t33 -46.5t59.5 -29l-28 -123q-52 -6 -92 0.5t-69.5 23.5t-49.5 43.5t-33 60.5q-26 -21 -63 -47t-85.5 -48.5t-107.5 -37.5t-129 -15q-67 0 -128.5 19t-108.5 55.5t-75 89t-28 119.5zM236 1270q23 52 60 92q16 17 36 33.5t45 29.5t54.5 21t64.5 8 q40 0 74.5 -17.5t63.5 -38t54 -38t48 -17.5q30 0 55 17t43 38q21 25 39 56l96 -59q-24 -55 -60 -98q-16 -18 -36 -36t-44.5 -31.5t-54 -22t-64.5 -8.5q-41 0 -75 17.5t-63 38t-54.5 38t-47.5 17.5q-30 0 -55.5 -17.5t-43.5 -38.5q-21 -25 -38 -55zM302 276q0 -33 14 -58.5 t37 -42.5t53.5 -26t63.5 -9q56 0 106.5 13.5t94 35.5t79 49.5t59.5 54.5v216q-102 -5 -194 -17.5t-161.5 -39t-110.5 -69t-41 -107.5z" />
<glyph unicode="&#xe4;" horiz-adv-x="1201" d="M112 263q0 73 26 130t73 100t112 74t142.5 50.5t164.5 29t179 11.5q-2 59 -21 98t-54 62t-84.5 32.5t-110.5 9.5q-27 0 -61 -4t-70 -11t-71 -16.5t-63 -20.5l-53 142q38 19 82 32t88.5 21.5t87.5 12.5t80 4q94 0 175 -20.5t139.5 -64.5t92 -112t33.5 -162v-319 q0 -44 3 -80t14.5 -63.5t33 -46.5t59.5 -29l-28 -123q-52 -6 -92 0.5t-69.5 23.5t-49.5 43.5t-33 60.5q-26 -21 -63 -47t-85.5 -48.5t-107.5 -37.5t-129 -15q-67 0 -128.5 19t-108.5 55.5t-75 89t-28 119.5zM300 1328q0 45 30.5 75.5t75.5 30.5t75.5 -30.5t30.5 -75.5 t-30.5 -75.5t-75.5 -30.5t-75.5 30.5t-30.5 75.5zM302 276q0 -33 14 -58.5t37 -42.5t53.5 -26t63.5 -9q56 0 106.5 13.5t94 35.5t79 49.5t59.5 54.5v216q-102 -5 -194 -17.5t-161.5 -39t-110.5 -69t-41 -107.5zM692 1328q0 45 30.5 75.5t75.5 30.5t75.5 -30.5t30.5 -75.5 t-30.5 -75.5t-75.5 -30.5t-75.5 30.5t-30.5 75.5z" />
<glyph unicode="&#xe5;" horiz-adv-x="1201" d="M112 263q0 73 26 130t73 100t112 74t142.5 50.5t164.5 29t179 11.5q-2 59 -21 98t-54 62t-84.5 32.5t-110.5 9.5q-27 0 -61 -4t-70 -11t-71 -16.5t-63 -20.5l-53 142q38 19 82 32t88.5 21.5t87.5 12.5t80 4q94 0 175 -20.5t139.5 -64.5t92 -112t33.5 -162v-319 q0 -44 3 -80t14.5 -63.5t33 -46.5t59.5 -29l-28 -123q-52 -6 -92 0.5t-69.5 23.5t-49.5 43.5t-33 60.5q-26 -21 -63 -47t-85.5 -48.5t-107.5 -37.5t-129 -15q-67 0 -128.5 19t-108.5 55.5t-75 89t-28 119.5zM302 276q0 -33 14 -58.5t37 -42.5t53.5 -26t63.5 -9 q56 0 106.5 13.5t94 35.5t79 49.5t59.5 54.5v216q-102 -5 -194 -17.5t-161.5 -39t-110.5 -69t-41 -107.5zM375 1346q0 46 19 85.5t51.5 68.5t74.5 45t89 16q49 0 89.5 -14t69.5 -40.5t45.5 -64.5t16.5 -87q0 -47 -19.5 -85.5t-51.5 -67t-75 -44t-89 -15.5q-49 0 -89.5 13.5 t-69.5 39.5t-45 63.5t-16 86.5zM491 1355q0 -53 32.5 -82t85.5 -29q45 0 75 28.5t30 73.5q0 53 -33 83.5t-86 30.5q-45 0 -74.5 -30t-29.5 -75z" />
<glyph unicode="&#xe6;" horiz-adv-x="1809" d="M101 263q0 73 26 130t73 100t112 74t142.5 50.5t164.5 29t179 11.5q-2 59 -21 98t-54 62t-84.5 32.5t-110.5 9.5q-27 0 -61 -4t-70 -11t-71 -16.5t-63 -20.5l-53 142q38 19 82 32t88.5 21.5t87.5 12.5t80 4q130 0 230 -38t157 -123q69 76 164.5 118.5t210.5 42.5 q87 0 161 -27t127.5 -80.5t84 -134t30.5 -187.5q0 -45 -7 -97t-14 -94h-695q22 -121 98 -190.5t215 -69.5q44 0 90.5 5.5t91.5 14.5t86 21.5t73 26.5l32 -143q-36 -21 -84.5 -36.5t-102 -26.5t-107 -16.5t-98.5 -5.5q-151 0 -253.5 48t-161.5 142q-39 -34 -86 -68t-103 -61 t-121 -44t-138 -17q-62 0 -121 19t-104.5 55.5t-73.5 89t-28 119.5zM291 276q0 -33 13.5 -58.5t35.5 -42.5t50 -26t56 -9q62 0 119.5 16.5t106 42t86 57t59.5 60.5q-19 80 -19 182v11q-102 -5 -194 -17.5t-161.5 -39t-110.5 -69t-41 -107.5zM989 547h542q0 4 1 11.5t2 16 t1.5 15.5t0.5 11q0 56 -15 104t-45.5 83.5t-76.5 55.5t-107 20q-67 0 -120.5 -25t-92.5 -68t-62 -101t-28 -123z" />
<glyph unicode="&#xe7;" horiz-adv-x="990" d="M95 498q0 110 38.5 205.5t107 166t162.5 110.5t204 40q95 0 173 -19.5t149 -71.5l-66 -149q-51 38 -122 61t-152 23q-71 0 -127.5 -28.5t-95.5 -77t-60 -113t-21 -135.5q0 -77 21.5 -144t63 -117.5t101 -79.5t136.5 -29q88 0 162.5 18t151.5 56l35 -141 q-32 -24 -73 -40.5t-86 -28t-91.5 -17t-89.5 -6.5q-2 -5 -6 -15.5t-9 -22.5t-9 -23.5t-6 -19.5q64 -16 100.5 -54t36.5 -95q0 -34 -20.5 -68.5t-52 -66t-70 -58t-75.5 -44.5l-74 75q20 15 40.5 31.5t37 33.5t27 34t10.5 33q0 13 -11 24t-28.5 20t-38 15.5t-39.5 10.5 q5 21 14 46.5t19.5 51.5t21.5 51t22 45q-99 12 -175.5 53.5t-129 108t-79.5 155.5t-27 196z" />
<glyph unicode="&#xe8;" horiz-adv-x="1106" d="M95 498q0 110 38.5 205.5t107 166t162.5 110.5t204 40q87 0 161 -27t127.5 -80.5t84 -134t30.5 -187.5q0 -45 -6.5 -97t-13.5 -94h-696q22 -121 98 -190.5t215 -69.5q44 0 90.5 5.5t91.5 14.5t86 21.5t73 26.5l32 -143q-36 -21 -84.5 -36.5t-102 -26.5t-107 -16.5 t-98.5 -5.5q-125 0 -218 34t-154 100t-91 162.5t-30 221.5zM283 1408l114 117l333 -286l-91 -91zM286 547h543q0 4 1 11.5t1.5 16t1 15.5t0.5 11q0 56 -15 104t-45.5 83.5t-76.5 55.5t-107 20q-67 0 -120.5 -25t-92.5 -68t-62 -101t-28 -123z" />
<glyph unicode="&#xe9;" horiz-adv-x="1106" d="M95 498q0 110 38.5 205.5t107 166t162.5 110.5t204 40q87 0 161 -27t127.5 -80.5t84 -134t30.5 -187.5q0 -45 -6.5 -97t-13.5 -94h-696q22 -121 98 -190.5t215 -69.5q44 0 90.5 5.5t91.5 14.5t86 21.5t73 26.5l32 -143q-36 -21 -84.5 -36.5t-102 -26.5t-107 -16.5 t-98.5 -5.5q-125 0 -218 34t-154 100t-91 162.5t-30 221.5zM286 547h543q0 4 1 11.5t1.5 16t1 15.5t0.5 11q0 56 -15 104t-45.5 83.5t-76.5 55.5t-107 20q-67 0 -120.5 -25t-92.5 -68t-62 -101t-28 -123zM421 1235l333 286l116 -116l-356 -260z" />
<glyph unicode="&#xea;" horiz-adv-x="1106" d="M95 498q0 110 38.5 205.5t107 166t162.5 110.5t204 40q87 0 161 -27t127.5 -80.5t84 -134t30.5 -187.5q0 -45 -6.5 -97t-13.5 -94h-696q22 -121 98 -190.5t215 -69.5q44 0 90.5 5.5t91.5 14.5t86 21.5t73 26.5l32 -143q-36 -21 -84.5 -36.5t-102 -26.5t-107 -16.5 t-98.5 -5.5q-125 0 -218 34t-154 100t-91 162.5t-30 221.5zM286 547h543q0 4 1 11.5t1.5 16t1 15.5t0.5 11q0 56 -15 104t-45.5 83.5t-76.5 55.5t-107 20q-67 0 -120.5 -25t-92.5 -68t-62 -101t-28 -123zM295 1232l310 294l308 -292l-93 -89l-221 185l-213 -185z" />
<glyph unicode="&#xeb;" horiz-adv-x="1106" d="M95 498q0 110 38.5 205.5t107 166t162.5 110.5t204 40q87 0 161 -27t127.5 -80.5t84 -134t30.5 -187.5q0 -45 -6.5 -97t-13.5 -94h-696q22 -121 98 -190.5t215 -69.5q44 0 90.5 5.5t91.5 14.5t86 21.5t73 26.5l32 -143q-36 -21 -84.5 -36.5t-102 -26.5t-107 -16.5 t-98.5 -5.5q-125 0 -218 34t-154 100t-91 162.5t-30 221.5zM251 1328q0 45 30.5 75.5t75.5 30.5t75.5 -30.5t30.5 -75.5t-30.5 -75.5t-75.5 -30.5t-75.5 30.5t-30.5 75.5zM286 547h543q0 4 1 11.5t1.5 16t1 15.5t0.5 11q0 56 -15 104t-45.5 83.5t-76.5 55.5t-107 20 q-67 0 -120.5 -25t-92.5 -68t-62 -101t-28 -123zM643 1328q0 45 30.5 75.5t75.5 30.5t75.5 -30.5t30.5 -75.5t-30.5 -75.5t-75.5 -30.5t-75.5 30.5t-30.5 75.5z" />
<glyph unicode="&#xec;" horiz-adv-x="558" d="M-74 1408l114 117l333 -286l-91 -91zM184 0v1000h190v-1000h-190z" />
<glyph unicode="&#xed;" horiz-adv-x="558" d="M170 1235l333 286l116 -116l-356 -260zM184 0v1000h190v-1000h-190z" />
<glyph unicode="&#xee;" horiz-adv-x="558" d="M-30 1232l310 294l308 -292l-93 -89l-221 185l-213 -185zM184 0v1000h190v-1000h-190z" />
<glyph unicode="&#xef;" horiz-adv-x="558" d="M-23 1328q0 45 30.5 75.5t75.5 30.5t75.5 -30.5t30.5 -75.5t-30.5 -75.5t-75.5 -30.5t-75.5 30.5t-30.5 75.5zM184 0v1000h190v-1000h-190zM369 1328q0 45 30.5 75.5t75.5 30.5t75.5 -30.5t30.5 -75.5t-30.5 -75.5t-75.5 -30.5t-75.5 30.5t-30.5 75.5z" />
<glyph unicode="&#xf0;" d="M95 462q0 113 43.5 206.5t118 160.5t174.5 104t213 37q107 0 186.5 -28t139.5 -73q-26 98 -75 185t-131 158l-216 -155l-91 124l171 123q-119 61 -280 92l65 165q113 -21 206 -57t171 -84l194 139l91 -124l-158 -113q73 -69 124.5 -150t84.5 -171t48.5 -186t15.5 -194 q0 -143 -39 -261t-112 -202.5t-177.5 -131t-235.5 -46.5q-115 0 -212 32.5t-168 94t-111 151t-40 204.5zM285 474q0 -80 26.5 -142t73.5 -104.5t113 -65t146 -22.5q85 0 151.5 33t112 94.5t69 148.5t23.5 194q0 11 -0.5 22t-0.5 22q-36 32 -77 60.5t-87.5 49.5t-98.5 33.5 t-110 12.5q-75 0 -137.5 -24.5t-108 -68.5t-70.5 -106t-25 -137z" />
<glyph unicode="&#xf1;" horiz-adv-x="1337" d="M184 0v1000h145l29 -99q29 22 67 43.5t83.5 38.5t98 27t111.5 10q118 0 204 -34t142 -98.5t83 -157.5t27 -211v-519h-190v507q0 80 -13.5 145.5t-46 111.5t-86 71t-133.5 25q-50 0 -100 -9t-94 -27t-79.5 -43.5t-57.5 -58.5v-722h-190zM300 1270q23 52 60 92 q16 17 36 33.5t45 29.5t54.5 21t64.5 8q40 0 74.5 -17.5t63.5 -38t54 -38t48 -17.5q30 0 55 17t43 38q21 25 39 56l96 -59q-24 -55 -60 -98q-16 -18 -36 -36t-44.5 -31.5t-54 -22t-64.5 -8.5q-41 0 -75 17.5t-63 38t-54.5 38t-47.5 17.5q-30 0 -55.5 -17.5t-43.5 -38.5 q-21 -25 -38 -55z" />
<glyph unicode="&#xf2;" d="M95 492q0 113 45 210t121.5 167.5t178 110.5t214.5 40q115 0 213.5 -37.5t171.5 -105.5t114.5 -163t41.5 -210q0 -113 -45 -209t-121.5 -166t-178 -109.5t-214.5 -39.5q-115 0 -214 37t-171.5 104.5t-114 161.5t-41.5 209zM285 504q0 -80 28 -146.5t77 -115t116.5 -75.5 t147.5 -27q75 0 139 27t111.5 74.5t74 112t26.5 139.5q0 79 -28 146.5t-77 116.5t-117 76.5t-147 27.5q-75 0 -139 -27.5t-111.5 -75.5t-74 -113t-26.5 -140zM361 1408l114 117l333 -286l-91 -91z" />
<glyph unicode="&#xf3;" d="M95 492q0 113 45 210t121.5 167.5t178 110.5t214.5 40q115 0 213.5 -37.5t171.5 -105.5t114.5 -163t41.5 -210q0 -113 -45 -209t-121.5 -166t-178 -109.5t-214.5 -39.5q-115 0 -214 37t-171.5 104.5t-114 161.5t-41.5 209zM285 504q0 -80 28 -146.5t77 -115t116.5 -75.5 t147.5 -27q75 0 139 27t111.5 74.5t74 112t26.5 139.5q0 79 -28 146.5t-77 116.5t-117 76.5t-147 27.5q-75 0 -139 -27.5t-111.5 -75.5t-74 -113t-26.5 -140zM492 1235l333 286l116 -116l-356 -260z" />
<glyph unicode="&#xf4;" d="M95 492q0 113 45 210t121.5 167.5t178 110.5t214.5 40q115 0 213.5 -37.5t171.5 -105.5t114.5 -163t41.5 -210q0 -113 -45 -209t-121.5 -166t-178 -109.5t-214.5 -39.5q-115 0 -214 37t-171.5 104.5t-114 161.5t-41.5 209zM285 504q0 -80 28 -146.5t77 -115t116.5 -75.5 t147.5 -27q75 0 139 27t111.5 74.5t74 112t26.5 139.5q0 79 -28 146.5t-77 116.5t-117 76.5t-147 27.5q-75 0 -139 -27.5t-111.5 -75.5t-74 -113t-26.5 -140zM336 1232l310 294l308 -292l-93 -89l-221 185l-213 -185z" />
<glyph unicode="&#xf5;" d="M95 492q0 113 45 210t121.5 167.5t178 110.5t214.5 40q115 0 213.5 -37.5t171.5 -105.5t114.5 -163t41.5 -210q0 -113 -45 -209t-121.5 -166t-178 -109.5t-214.5 -39.5q-115 0 -214 37t-171.5 104.5t-114 161.5t-41.5 209zM278 1270q23 52 60 92q16 17 36 33.5t45 29.5 t54.5 21t64.5 8q40 0 74.5 -17.5t63.5 -38t54 -38t48 -17.5q30 0 55 17t43 38q21 25 39 56l96 -59q-24 -55 -60 -98q-16 -18 -36 -36t-44.5 -31.5t-54 -22t-64.5 -8.5q-41 0 -75 17.5t-63 38t-54.5 38t-47.5 17.5q-30 0 -55.5 -17.5t-43.5 -38.5q-21 -25 -38 -55zM285 504 q0 -80 28 -146.5t77 -115t116.5 -75.5t147.5 -27q75 0 139 27t111.5 74.5t74 112t26.5 139.5q0 79 -28 146.5t-77 116.5t-117 76.5t-147 27.5q-75 0 -139 -27.5t-111.5 -75.5t-74 -113t-26.5 -140z" />
<glyph unicode="&#xf6;" d="M95 492q0 113 45 210t121.5 167.5t178 110.5t214.5 40q115 0 213.5 -37.5t171.5 -105.5t114.5 -163t41.5 -210q0 -113 -45 -209t-121.5 -166t-178 -109.5t-214.5 -39.5q-115 0 -214 37t-171.5 104.5t-114 161.5t-41.5 209zM285 504q0 -80 28 -146.5t77 -115t116.5 -75.5 t147.5 -27q75 0 139 27t111.5 74.5t74 112t26.5 139.5q0 79 -28 146.5t-77 116.5t-117 76.5t-147 27.5q-75 0 -139 -27.5t-111.5 -75.5t-74 -113t-26.5 -140zM343 1328q0 45 30.5 75.5t75.5 30.5t75.5 -30.5t30.5 -75.5t-30.5 -75.5t-75.5 -30.5t-75.5 30.5t-30.5 75.5z M735 1328q0 45 30.5 75.5t75.5 30.5t75.5 -30.5t30.5 -75.5t-30.5 -75.5t-75.5 -30.5t-75.5 30.5t-30.5 75.5z" />
<glyph unicode="&#xf7;" horiz-adv-x="1336" d="M207 445v168h922v-168h-922zM544 170q0 57 34 90.5t91 33.5q55 0 89 -33.5t34 -90.5q0 -55 -34 -89t-89 -34q-57 0 -91 34t-34 89zM544 888q0 57 34 90.5t91 33.5q55 0 89 -33.5t34 -90.5q0 -55 -34 -89t-89 -34q-57 0 -91 34t-34 89z" />
<glyph unicode="&#xf8;" d="M95 492q0 113 45 210t121.5 167.5t178 110.5t214.5 40q65 0 125 -12.5t114 -35.5l107 145l120 -87l-100 -136q81 -69 128 -168t47 -222q0 -113 -45 -209t-121.5 -166t-178 -109.5t-214.5 -39.5q-69 0 -131 13t-118 38l-120 -163l-120 87l115 156q-78 68 -122.5 164.5 t-44.5 216.5zM285 504q0 -72 22.5 -133.5t64.5 -109.5l417 569q-35 14 -73 22t-80 8q-75 0 -139 -27.5t-111.5 -75.5t-74 -113t-26.5 -140zM491 173q37 -16 77.5 -24.5t85.5 -8.5q75 0 139 27t111.5 74.5t74 112t26.5 139.5t-25 139t-70 112z" />
<glyph unicode="&#xf9;" horiz-adv-x="1295" d="M163 481v519h190v-507q0 -80 11.5 -145t40.5 -111t80 -71.5t131 -25.5q50 0 96.5 10.5t86 29t70.5 44.5t52 57v719h190v-1000h-145l-29 97q-26 -22 -60 -43t-76 -37.5t-91.5 -26.5t-106.5 -10q-124 0 -208 32t-135.5 95t-74 156.5t-22.5 217.5zM323 1408l114 117 l333 -286l-91 -91z" />
<glyph unicode="&#xfa;" horiz-adv-x="1295" d="M163 481v519h190v-507q0 -80 11.5 -145t40.5 -111t80 -71.5t131 -25.5q50 0 96.5 10.5t86 29t70.5 44.5t52 57v719h190v-1000h-145l-29 97q-26 -22 -60 -43t-76 -37.5t-91.5 -26.5t-106.5 -10q-124 0 -208 32t-135.5 95t-74 156.5t-22.5 217.5zM512 1235l333 286 l116 -116l-356 -260z" />
<glyph unicode="&#xfb;" horiz-adv-x="1295" d="M163 481v519h190v-507q0 -80 11.5 -145t40.5 -111t80 -71.5t131 -25.5q50 0 96.5 10.5t86 29t70.5 44.5t52 57v719h190v-1000h-145l-29 97q-26 -22 -60 -43t-76 -37.5t-91.5 -26.5t-106.5 -10q-124 0 -208 32t-135.5 95t-74 156.5t-22.5 217.5zM338 1232l310 294 l308 -292l-93 -89l-221 185l-213 -185z" />
<glyph unicode="&#xfc;" horiz-adv-x="1295" d="M163 481v519h190v-507q0 -80 11.5 -145t40.5 -111t80 -71.5t131 -25.5q50 0 96.5 10.5t86 29t70.5 44.5t52 57v719h190v-1000h-145l-29 97q-26 -22 -60 -43t-76 -37.5t-91.5 -26.5t-106.5 -10q-124 0 -208 32t-135.5 95t-74 156.5t-22.5 217.5zM345 1328q0 45 30.5 75.5 t75.5 30.5t75.5 -30.5t30.5 -75.5t-30.5 -75.5t-75.5 -30.5t-75.5 30.5t-30.5 75.5zM737 1328q0 45 30.5 75.5t75.5 30.5t75.5 -30.5t30.5 -75.5t-30.5 -75.5t-75.5 -30.5t-75.5 30.5t-30.5 75.5z" />
<glyph unicode="&#xfd;" horiz-adv-x="1057" d="M40 1000h197l210 -543q17 -44 31 -89t25 -82q12 -43 22 -83h10q10 33 23 73q11 34 26.5 77.5t35.5 94.5l215 552h182l-395 -1000q-46 -117 -95 -207.5t-103.5 -153t-115.5 -94.5t-131 -32q-41 0 -69.5 9t-60.5 34l32 145q51 -19 118 -19q40 0 73 21.5t60.5 58t51.5 86 t46 106.5l10 26zM410 1235l333 286l116 -116l-356 -260z" />
<glyph unicode="&#xfe;" horiz-adv-x="1269" d="M184 -467v2029h190v-645q27 20 61 38.5t74.5 33t88 23t100.5 8.5q109 0 197 -36t150 -100.5t95.5 -154.5t33.5 -199q0 -124 -43.5 -225.5t-120 -173.5t-181.5 -111.5t-229 -39.5q-63 0 -120.5 6t-105.5 16v-469h-190zM374 173q30 -7 63 -13t65 -10.5t62 -7t54 -2.5 q87 0 155 26.5t115 75.5t71.5 119t24.5 157q0 71 -20 133.5t-58.5 109t-94 73t-126.5 26.5q-50 0 -97.5 -9t-88 -26.5t-73 -43t-52.5 -58.5v-550z" />
<glyph unicode="&#xff;" horiz-adv-x="1057" d="M40 1000h197l210 -543q17 -44 31 -89t25 -82q12 -43 22 -83h10q10 33 23 73q11 34 26.5 77.5t35.5 94.5l215 552h182l-395 -1000q-46 -117 -95 -207.5t-103.5 -153t-115.5 -94.5t-131 -32q-41 0 -69.5 9t-60.5 34l32 145q51 -19 118 -19q40 0 73 21.5t60.5 58t51.5 86 t46 106.5l10 26zM226 1328q0 45 30.5 75.5t75.5 30.5t75.5 -30.5t30.5 -75.5t-30.5 -75.5t-75.5 -30.5t-75.5 30.5t-30.5 75.5zM618 1328q0 45 30.5 75.5t75.5 30.5t75.5 -30.5t30.5 -75.5t-30.5 -75.5t-75.5 -30.5t-75.5 30.5t-30.5 75.5z" />
<glyph unicode="&#x152;" horiz-adv-x="2252" d="M137 693q0 109 27.5 206.5t78.5 180t122 148.5t158 112t187.5 71t209.5 25q93 0 184 -20h1019v-168h-852v-382h757v-168h-757v-530h872v-168h-1053q-92 -20 -188 -20q-157 0 -296 52.5t-243.5 147t-165 225.5t-60.5 288zM333 723q0 -122 46 -227t126 -183t186.5 -122.5 t228.5 -44.5q88 0 166 22v1073q-89 29 -184 29q-118 0 -221.5 -41.5t-181 -114.5t-122 -173t-44.5 -218z" />
<glyph unicode="&#x153;" horiz-adv-x="2017" d="M95 492q0 113 45 210t121.5 167.5t178 110.5t214.5 40q70 0 135 -14.5t122 -42t105 -67t84 -89.5q69 98 176.5 155.5t241.5 57.5q87 0 161 -27t127.5 -80.5t84 -134t30.5 -187.5q0 -45 -6.5 -97t-13.5 -94h-696q22 -121 98 -190.5t215 -69.5q44 0 90.5 5.5t91.5 14.5 t86 21.5t73 26.5l32 -143q-36 -21 -84.5 -36.5t-102 -26.5t-107 -16.5t-98.5 -5.5q-155 0 -259 50.5t-162 149.5q-39 -47 -88 -84t-105.5 -62.5t-119.5 -39.5t-129 -14q-115 0 -214 37t-171.5 104.5t-114 161.5t-41.5 209zM285 504q0 -80 28 -146.5t77 -115t116.5 -75.5 t147.5 -27q75 0 139 27t111.5 74.5t74 112t26.5 139.5q0 79 -28 146.5t-77 116.5t-117 76.5t-147 27.5q-75 0 -139 -27.5t-111.5 -75.5t-74 -113t-26.5 -140zM1197 547h543q0 4 1 11.5t1.5 16t1 15.5t0.5 11q0 56 -15 104t-45.5 83.5t-76.5 55.5t-107 20q-67 0 -120.5 -25 t-92.5 -68t-62 -101t-28 -123z" />
<glyph unicode="&#x178;" horiz-adv-x="1291" d="M293 1664q0 45 30.5 75.5t75.5 30.5t75.5 -30.5t30.5 -75.5t-30.5 -75.5t-75.5 -30.5t-75.5 30.5t-30.5 75.5zM785 1664q0 45 30.5 75.5t75.5 30.5t75.5 -30.5t30.5 -75.5t-30.5 -75.5t-75.5 -30.5t-75.5 30.5t-30.5 75.5zM37 1416h203l413 -647l410 647h191l-510 -809 v-607h-185v604z" />
<glyph unicode="&#x2c6;" horiz-adv-x="598" d="M-11 1232l310 294l308 -292l-93 -89l-221 185l-213 -185z" />
<glyph unicode="&#x2dc;" horiz-adv-x="598" d="M-67 1270q23 52 60 92q16 17 36 33.5t45 29.5t54.5 21t64.5 8q40 0 74.5 -17.5t63.5 -38t54 -38t48 -17.5q30 0 55 17t43 38q21 25 39 56l96 -59q-24 -55 -60 -98q-16 -18 -36 -36t-44.5 -31.5t-54 -22t-64.5 -8.5q-41 0 -75 17.5t-63 38t-54.5 38t-47.5 17.5 q-30 0 -55.5 -17.5t-43.5 -38.5q-21 -25 -38 -55z" />
<glyph unicode="&#x2000;" horiz-adv-x="960" />
<glyph unicode="&#x2001;" horiz-adv-x="1920" />
<glyph unicode="&#x2002;" horiz-adv-x="960" />
<glyph unicode="&#x2003;" horiz-adv-x="1920" />
<glyph unicode="&#x2004;" horiz-adv-x="640" />
<glyph unicode="&#x2005;" horiz-adv-x="480" />
<glyph unicode="&#x2006;" horiz-adv-x="320" />
<glyph unicode="&#x2007;" horiz-adv-x="320" />
<glyph unicode="&#x2008;" horiz-adv-x="240" />
<glyph unicode="&#x2009;" horiz-adv-x="384" />
<glyph unicode="&#x200a;" horiz-adv-x="106" />
<glyph unicode="&#x2010;" horiz-adv-x="1136" d="M207 515v154h722v-154h-722z" />
<glyph unicode="&#x2011;" horiz-adv-x="1136" d="M207 515v154h722v-154h-722z" />
<glyph unicode="&#x2012;" horiz-adv-x="1136" d="M207 515v154h722v-154h-722z" />
<glyph unicode="&#x2013;" horiz-adv-x="1556" d="M267 515v154h1022v-154h-1022z" />
<glyph unicode="&#x2014;" horiz-adv-x="1636" d="M107 515v154h1422v-154h-1422z" />
<glyph unicode="&#x2018;" horiz-adv-x="527" d="M120 1174q0 33 10.5 70.5t27.5 75.5t38.5 75t44.5 68.5t44.5 57t38.5 40.5l91 -51q-14 -18 -30 -50t-31 -69t-25.5 -74.5t-12.5 -66.5q17 -11 34.5 -34.5t17.5 -55.5q0 -26 -10 -46.5t-27 -35t-39.5 -22.5t-47.5 -8q-27 0 -50 10t-39.5 27t-25.5 40t-9 49z" />
<glyph unicode="&#x2019;" horiz-adv-x="527" d="M112 1099q13 18 29.5 50t31.5 69t25.5 74.5t12.5 66.5q-17 11 -34.5 34.5t-17.5 55.5q0 26 10 46.5t27 35t39.5 22.5t47.5 8q27 0 50 -10t39.5 -27t25.5 -40t9 -49q0 -34 -10.5 -71t-27.5 -75t-38.5 -75t-44.5 -68.5t-44.5 -57t-38.5 -40.5z" />
<glyph unicode="&#x201a;" horiz-adv-x="527" d="M112 -228q13 18 29.5 50t31.5 69t25.5 74.5t12.5 66.5q-17 11 -34.5 34.5t-17.5 55.5q0 26 10 46.5t27 35t39.5 22.5t47.5 8q27 0 50 -10t39.5 -27t25.5 -40t9 -49q0 -33 -10.5 -70.5t-27.5 -75.5t-38.5 -75t-44.5 -68.5t-44.5 -57t-38.5 -40.5z" />
<glyph unicode="&#x201c;" horiz-adv-x="881" d="M120 1049q0 34 10.5 71t27.5 75t38.5 74.5t44.5 68.5t44.5 57.5t38.5 40.5l91 -51q-14 -18 -30 -50t-31 -69t-25.5 -74.5t-12.5 -66.5q17 -11 34.5 -34.5t17.5 -55.5q0 -26 -10 -46.5t-27 -35t-39.5 -22.5t-47.5 -8q-27 0 -50 10t-39.5 27t-25.5 40t-9 49zM474 1049 q0 34 10.5 71t27.5 75t38.5 74.5t44.5 68.5t44.5 57.5t38.5 40.5l91 -51q-14 -18 -30 -50t-31 -69t-25.5 -74.5t-12.5 -66.5q17 -11 34.5 -34.5t17.5 -55.5q0 -26 -10 -46.5t-27 -35t-39.5 -22.5t-47.5 -8q-27 0 -50 10t-39.5 27t-25.5 40t-9 49z" />
<glyph unicode="&#x201d;" horiz-adv-x="881" d="M112 974q13 18 29.5 50t31.5 69t25.5 74.5t12.5 66.5q-17 11 -34.5 34.5t-17.5 55.5q0 26 10 46.5t27 35t39.5 22.5t47.5 8q27 0 50 -10t39.5 -27t25.5 -40t9 -49q0 -34 -10.5 -71t-27.5 -75t-38.5 -74.5t-44.5 -68.5t-44.5 -57.5t-38.5 -40.5zM466 974q13 18 29.5 50 t31.5 69t25.5 74.5t12.5 66.5q-17 11 -34.5 34.5t-17.5 55.5q0 26 10 46.5t27 35t39.5 22.5t47.5 8q27 0 50 -10t39.5 -27t25.5 -40t9 -49q0 -34 -10.5 -71t-27.5 -75t-38.5 -74.5t-44.5 -68.5t-44.5 -57.5t-38.5 -40.5z" />
<glyph unicode="&#x201e;" horiz-adv-x="881" d="M112 -228q13 18 29.5 50t31.5 69t25.5 74.5t12.5 66.5q-17 11 -34.5 34.5t-17.5 55.5q0 26 10 46.5t27 35t39.5 22.5t47.5 8q27 0 50 -10t39.5 -27t25.5 -40t9 -49q0 -33 -10.5 -70.5t-27.5 -75.5t-38.5 -75t-44.5 -68.5t-44.5 -57t-38.5 -40.5zM466 -228q13 18 29.5 50 t31.5 69t25.5 74.5t12.5 66.5q-17 11 -34.5 34.5t-17.5 55.5q0 26 10 46.5t27 35t39.5 22.5t47.5 8q27 0 50 -10t39.5 -27t25.5 -40t9 -49q0 -33 -10.5 -70.5t-27.5 -75.5t-38.5 -75t-44.5 -68.5t-44.5 -57t-38.5 -40.5z" />
<glyph unicode="&#x2022;" horiz-adv-x="622" d="M107 570q0 46 14.5 83.5t41.5 64.5t65 41.5t84 14.5q45 0 82.5 -14.5t64 -41.5t41.5 -64.5t15 -83.5q0 -45 -15 -82.5t-41.5 -64t-64 -41.5t-82.5 -15q-46 0 -84 15t-65 41.5t-41.5 64t-14.5 82.5z" />
<glyph unicode="&#x2026;" horiz-adv-x="1581" d="M1212 110q0 57 34 90.5t91 33.5q55 0 89 -33.5t34 -90.5q0 -55 -34 -89t-89 -34q-57 0 -91 34t-34 89zM685 110q0 57 34 90.5t91 33.5q55 0 89 -33.5t34 -90.5q0 -55 -34 -89t-89 -34q-57 0 -91 34t-34 89zM158 110q0 57 34 90.5t91 33.5q55 0 89 -33.5t34 -90.5 q0 -55 -34 -89t-89 -34q-57 0 -91 34t-34 89z" />
<glyph unicode="&#x202f;" horiz-adv-x="384" />
<glyph unicode="&#x2039;" horiz-adv-x="702" d="M107 471v60l425 413l103 -98l-298 -328l292 -314l-99 -106z" />
<glyph unicode="&#x203a;" horiz-adv-x="702" d="M89 196l298 328l-292 314l99 106l423 -373v-60l-425 -413z" />
<glyph unicode="&#x205f;" horiz-adv-x="480" />
<glyph unicode="&#x20ac;" horiz-adv-x="1697" d="M65 444l20 154h202q-2 23 -3.5 46.5t-1.5 48.5q0 52 6 102h-183l20 154h195q35 111 99.5 200.5t153.5 153.5t201 98.5t241 34.5q147 0 275 -44t227 -122l-93 -148q-75 67 -184.5 107.5t-242.5 40.5q-87 0 -162.5 -23t-136.5 -65t-106.5 -101.5t-73.5 -131.5h789l-20 -154 h-805q-2 -18 -3 -36t-1 -36q0 -32 2.5 -63.5t8.5 -61.5h778l-20 -154h-709q32 -67 79 -122t108 -94t134 -60.5t156 -21.5q59 0 121.5 11.5t121 31.5t110.5 46.5t90 57.5l72 -138q-48 -41 -108 -73t-128 -55t-143 -35t-154 -12q-123 0 -231 33t-195.5 93.5t-151 146 t-98.5 191.5h-256z" />
<glyph unicode="&#x2122;" horiz-adv-x="3330" d="M1560 0l110 1415h55l625 -685l624 685h59l120 -1415h-181l-91 1065l-529 -586h-20l-513 577l-80 -1056h-179zM67 1248v168h1249v-168h-532v-1248h-185v1248h-532z" />
<glyph unicode="&#xe000;" horiz-adv-x="1000" d="M0 1000h1000v-1000h-1000v1000z" />
<glyph unicode="&#xfb01;" horiz-adv-x="1200" d="M19 846v154h185v38q0 116 28.5 212t86.5 165t145 107t203 38q45 0 91.5 -9t90.5 -24.5t84.5 -36.5t74.5 -45l-74 -148q-24 19 -56.5 38t-70 34.5t-78 25t-80.5 9.5q-73 0 -121.5 -28t-78 -76t-42 -112.5t-12.5 -137.5v-50h621v-1000h-190v846h-431v-846h-191v846h-185z " />
<glyph unicode="&#xfb02;" horiz-adv-x="1298" d="M19 846v154h185v38q0 116 27 212.5t83 165.5t141.5 107t201.5 38q54 0 110 -7.5t110 -19.5t104 -27t92 -29v-1136q0 -44 3 -80t14.5 -63.5t33 -46.5t59.5 -29l-28 -123q-85 -11 -138 12.5t-83 70t-40.5 110.5t-10.5 135v1026q-46 22 -110 36.5t-134 14.5q-73 0 -120 -28 t-74.5 -76.5t-38.5 -113t-11 -137.5v-50h346v-154h-346v-846h-191v846h-185z" />
<glyph unicode="&#xfb03;" horiz-adv-x="2110" d="M1707 1410q0 57 34 90.5t91 33.5q55 0 89 -33.5t34 -90.5q0 -55 -34 -89t-89 -34q-57 0 -91 34t-34 89zM1736 0v1000h190v-1000h-190zM795 846v154h185v38q0 116 25.5 212t79.5 165t138 107t200 38q60 0 121 -15.5t109 -38.5l-45 -151q-42 22 -96 35.5t-107 13.5 q-73 0 -118.5 -28t-71 -76t-35 -112.5t-9.5 -137.5v-50h386v-154h-386v-846h-191v846h-185zM19 846v154h185v38q0 116 25.5 212t79.5 165t138 107t200 38q60 0 121 -15.5t109 -38.5l-45 -151q-42 22 -96 35.5t-107 13.5q-73 0 -118.5 -28t-71 -76t-35 -112.5t-9.5 -137.5 v-50h386v-154h-386v-846h-191v846h-185z" />
<glyph unicode="&#xfb04;" horiz-adv-x="2108" d="M1736 328v1233h190v-1219q0 -44 3 -80t14.5 -63.5t33 -46.5t59.5 -30l-28 -122q-27 -4 -51 -4q-51 0 -87 16q-53 24 -83 70.5t-40.5 110.5t-10.5 135zM795 846v154h185v38q0 116 25.5 212t79.5 165t138 107t200 38q60 0 121 -15.5t109 -38.5l-45 -151q-42 22 -96 35.5 t-107 13.5q-73 0 -118.5 -28t-71 -76t-35 -112.5t-9.5 -137.5v-50h386v-154h-386v-846h-191v846h-185zM19 846v154h185v38q0 116 25.5 212t79.5 165t138 107t200 38q60 0 121 -15.5t109 -38.5l-45 -151q-42 22 -96 35.5t-107 13.5q-73 0 -118.5 -28t-71 -76t-35 -112.5 t-9.5 -137.5v-50h386v-154h-386v-846h-191v846h-185z" />
<glyph horiz-adv-x="598" d="M-53 1678q0 45 30.5 75.5t75.5 30.5t75.5 -30.5t30.5 -75.5t-30.5 -75.5t-75.5 -30.5t-75.5 30.5t-30.5 75.5zM439 1678q0 45 30.5 75.5t75.5 30.5t75.5 -30.5t30.5 -75.5t-30.5 -75.5t-75.5 -30.5t-75.5 30.5t-30.5 75.5z" />
</font>
</defs>
</svg>
